<?xml version="1.0" encoding="utf-8"?>
<!-- Generator: Adobe Illustrator 15.0.0, SVG Export Plug-In . SVG Version: 6.00 Build 0)  -->
<!DOCTYPE svg PUBLIC "-//W3C//DTD SVG 1.1//EN" "http://www.w3.org/Graphics/SVG/1.1/DTD/svg11.dtd">
<svg version="1.1" id="Calque_1" xmlns="http://www.w3.org/2000/svg" xmlns:xlink="http://www.w3.org/1999/xlink" x="0px" y="0px"
	 width="340px" height="340px" viewBox="0 0 340 340" enable-background="new 0 0 340 340" xml:space="preserve">
<g id="lWW0Qj_1_" display="none">
	<g display="inline">
		<path fill="#FFFCF2" d="M238.977,22.427c4.092,1.404-2.14,6.148-0.863,10.365C235.537,29.882,239.358,26.015,238.977,22.427z"/>
		<path fill="#FFFCF2" d="M226.018,37.976c2.794-1.064,0.655,2.798,3.455,1.729c0.377,2.972-0.341,4.842-0.867,6.912
			c-2.473-0.116,0.747-5.93-1.727-6.048c-1.986,2.043-0.309,7.754-0.861,11.232C222.283,50.014,224.532,40.211,226.018,37.976z"/>
		<path fill="#FFFCF2" d="M228.605,50.077c0.867,0,1.729,0,2.593,0c0.818,2.956,2.709,5.352,0.867,8.641
			c-2.343-0.825,0.814-7.152-2.593-6.913c-1.012,0.138-0.729,1.577-0.867,2.593C226.582,54.173,228.111,50.6,228.605,50.077z"/>
		<path fill="#FFFCF2" d="M165.533,50.94c1.694,1.186,0.465,5.292,1.728,6.912C165.167,57.05,164.282,52.443,165.533,50.94z"/>
		<path fill="#FFFCF2" d="M187.134,51.803c1.361,1.806,1.79,4.547,1.726,7.781C185.357,59.915,187.912,54.194,187.134,51.803z"/>
		<path fill="#FFFCF2" d="M292.548,58.716c3.001-0.407,0.498,4.685,2.593,5.184c0.16,0.735-0.332,0.816-0.864,0.867
			c-0.733-0.159-0.812,0.334-0.863,0.862C292.198,64.167,293.842,61.609,292.548,58.716z"/>
		<path fill="#FFFCF2" d="M178.493,64.767c2.06,3.248-2.474,7.289-1.727,12.094C174.566,73.475,177.871,68.204,178.493,64.767z"/>
		<path fill="#FFFCF2" d="M245.891,64.767c1.808,3.275-2.908,7.433-2.593,12.094C240.955,73.049,244.811,68.024,245.891,64.767z"/>
		<path fill="#FFFCF2" d="M223.422,70.812c2.674-2.052,3.407,5.204,3.457,8.644C224.434,77.648,224.463,74.032,223.422,70.812z"/>
		<path fill="#FFFCF2" d="M272.676,71.68c2.024,1.25-0.544,5.141-0.863,6.913C269.469,77.023,272.291,73.377,272.676,71.68z"/>
		<path fill="#FFFCF2" d="M268.357,77.725c-0.417-2.717,1.229-3.378,1.725-5.182C271.793,73.214,270.554,78.112,268.357,77.725z"/>
		<path fill="#FFFCF2" d="M150.84,74.27c1.275-0.372,1.104,8.085,1.729,11.235c1.894-2.229,0.771-8.801,0-11.235
			c2.508,2.126,2.686,11.111,1.729,13.826C150.174,86.458,151.173,79.702,150.84,74.27z"/>
		<path fill="#FFFCF2" d="M148.248,76.863c2.319,1.14,1.438,5.479,2.593,7.776C148.252,83.77,149.136,79.433,148.248,76.863z"/>
		<path fill="#FFFCF2" d="M175.036,80.315c1.893,1.857,2.73,4.763,2.593,8.644C173.883,87.029,176.312,84.141,175.036,80.315z"/>
		<path fill="#FFFCF2" d="M223.422,90.687c4.269,0.736-1.513,4.258-0.861,6.911C219.812,95.628,223.677,93.024,223.422,90.687z"/>
		<path fill="#FFFCF2" d="M302.919,100.196c-2.706-2.766,1.854-5.593,0.866-9.507C305.939,92.897,304.292,98.641,302.919,100.196z"
			/>
		<path fill="#FFFCF2" d="M139.609,97.601c-0.413-2.907,4.404-1.257,3.457,3.457c-2.975-0.028-5.693-6.132-7.778-1.725
			c-3.196-2.159,3.286-1.819,1.729-5.188C140.065,95.017,138.597,95.636,139.609,97.601z"/>
		<path fill="#FFFCF2" d="M321.064,107.104c3.218,0.654,0.474,4.851,0,6.913C319.281,113.274,320.151,108.004,321.064,107.104z"/>
		<path fill="#FFFCF2" d="M262.312,111.427c0.1,4.725-8.65,8.052-12.965,11.235C252.496,117.744,258.588,115.772,262.312,111.427z"
			/>
		<path fill="#FFFCF2" d="M143.926,120.931c-1.991,0.265-0.955-2.496-2.592-2.591c1.792-2.82,5.277-3.941,7.778-6.05
			c-0.391,3.639-4.221,3.84-6.045,6.05c0.265,1.169,2.163,0.717,3.453,0.865C146.324,120.449,143.942,119.502,143.926,120.931z"/>
		<path fill="#FFFCF2" d="M157.755,114.882c0.151,3.033-2.919,2.84-3.457,5.183C151.935,118.204,154.463,113.956,157.755,114.882z"
			/>
		<path fill="#FFFCF2" d="M259.72,119.205c1.658-1.446,4.054-5.017,6.045-3.458C264.102,117.192,261.706,120.759,259.72,119.205z"/>
		<path fill="#FFFCF2" d="M230.339,117.472c2.896,2.4-2.238,4.044-2.593,6.054C225.353,121.624,230.482,119.981,230.339,117.472z"/>
		<path fill="#FFFCF2" d="M326.254,121.796c-1.837,3.073-4.074,1.816-5.186,4.32C318.477,123.75,322.545,120.73,326.254,121.796z"/>
		<path fill="#FFFCF2" d="M240.706,125.25c1.602-2.096,0.586,5.697,0.864,7.778C239.971,135.129,240.986,127.332,240.706,125.25z"/>
		<path fill="#FFFCF2" d="M192.317,128.706c3.531,1.422-2.555,16.122-0.865,2.593C192.464,131.161,192.187,129.725,192.317,128.706z
			"/>
		<path fill="#FFFCF2" d="M219.106,145.99c-3.291-3.747-1.651-15.385-0.867-5.188C218.4,142.838,219.407,142.43,219.106,145.99z"/>
		<path fill="#FFFCF2" d="M247.617,150.31c0,1.154,0,2.305,0,3.459c-1.612,0.688-3.163,1.443-5.181,1.727
			C242.674,152.275,245.344,151.489,247.617,150.31z"/>
		<path fill="#FFFCF2" d="M244.163,163.272c1.216-2.241,1.198-5.717,2.592-7.777C247.771,156.564,246.828,163.015,244.163,163.272z"
			/>
		<path fill="#FFFCF2" d="M240.706,158.086c2.55-0.591,0.273,7.325-1.724,7.776C238.707,162.427,240.973,161.522,240.706,158.086z"
			/>
		<path fill="#FFFCF2" d="M241.57,164.998c0.135-2.746,1.962-3.802,1.728-6.911C245.113,159.404,244.113,165.178,241.57,164.998z"/>
		<path fill="#FFFCF2" d="M248.481,171.047c-2.796,1.067-0.659-2.795-3.454-1.729c-0.354-2.081,1.578-1.877,0.863-4.319
			c1.907,0.387,2.163,4.509,3.457,0.865C252.149,167.361,247.101,168.126,248.481,171.047z"/>
		<path fill="#FFFCF2" d="M194.045,174.504c3.869-0.066-0.526,3.202,0.867,6.05C191.543,179.682,194.778,177.582,194.045,174.504z"
			/>
		<path fill="#FFFCF2" d="M330.573,176.231c-0.702,4.82,1.928,7.645,0,11.23c0.804-0.629,1.307-1.566,1.726-2.589
			c2.517,1.213-1.531,2.976-0.863,5.185c-0.809-0.49-1.312-2.404-1.729-0.864C331.412,186.199,326.888,179.351,330.573,176.231z"/>
		<path fill="#FFFCF2" d="M291.688,180.554c3.337-0.512,1.258,5.688-0.865,5.18C290.805,183.702,292.311,183.193,291.688,180.554z"
			/>
		<path fill="#FFFCF2" d="M279.591,182.282c1.971,1.196,0.323,6.014,0.864,8.642c-3.281-0.178-2.991-3.924-4.319-6.051
			c0.839-0.022,0.669-1.056,0.865-1.728c1.394-0.243,1.486,0.816,2.593,0.867C279.591,183.433,279.591,182.859,279.591,182.282z"/>
		<path fill="#FFFCF2" d="M321.064,192.648c2.306,1.266-0.36,4.747-2.593,4.321C318.064,194.259,320.8,194.688,321.064,192.648z"/>
		<path fill="#FFFCF2" d="M330.573,206.477c2.169,1.394-1.535,4.155-1.731,6.05C326.674,211.128,330.378,208.365,330.573,206.477z"
			/>
		<path fill="#FFFCF2" d="M336.621,164.135c-10.071-0.906-19.279,11.098-12.96,18.147c-0.708-5.155,0.078-6.264,1.727-10.367
			c2.284,0.308,0.784,4.399,2.593,5.185c0.525-3.104,0.556-6.699,0.861-7.781c2.143,2.181,0.696,7.949,4.321,8.642
			c1.239-4.438-3.531-7.362-0.864-10.367c0.88,2.36,1.195,9.308,3.456,5.187c1.79,8.134-2.398,14.865-2.592,18.145
			c1.197-0.532,0.131-3.326,1.729-3.462c0.977,8.146-5.627,15.114-12.098,10.374c-0.146,1.294,0.311,3.189-0.864,3.455
			c-0.356-1.086-1.114-1.764-2.592-1.727c-0.199,1.531,0.87,4.328-1.729,3.457c-0.711-2.443,1.218-2.239,0.867-4.319
			c-4.304-0.843-0.553,6.361-4.322,6.051c-0.325-3.566,3.718-6.793,0-8.644c1.524-2.224,3.762-3.732,5.186-6.05
			c-3.201-0.985-5.009-0.083-6.914-0.864c0.243,1.97-0.207,3.248-1.729,3.456c-5.621,1.286-7.84,5.981-11.23,9.504
			c-6.939,2.937-16.864,3.924-21.603,11.235c-1.959,3.018-1.846,8.612-3.458,12.961c-3.973,10.741-10.192,15.994-6.909,29.377
			c10.715,11.424-6.943,26.881,3.453,41.478c-4.824-0.843-7.024,6.994-12.957,7.778c0.127-1.021,1.535-1.959,0-2.597
			c-0.784,1.525-3.182,1.431-3.46,3.458c1.485,0.342,2.215-1.281,2.593,0c-7.471,1.979-15.495,10.864-22.465,7.778
			c-2.438,0.154-1.078,4.106-4.322,3.458c6.637-8.38,18.094-13.453,16.416-27.655c2.959-1.941,3.593-6.2,7.778-6.911
			c0.548,2.911-1.111,8.023,0.866,9.505c1.006-6.079,2.665-12.144-1.728-15.553c-0.27,1.538-4.569,3.383-1.727,5.186
			c-0.266-1.05,2.498-2.979,2.593-0.864c-3.468,0.852-4.964,3.674-6.914,6.05c-0.917-5.927,7.096-10.054,7.778-12.964
			c-0.266,1.139-6.987,3.46-7.778,6.914c-2.849-7.38,0.799-15.908-3.457-21.602c10.501-10.25-1.642-21.989-3.457-34.568
			c-12.896-1.503-21.421-11.982-22.466-22.468c3.105,5.54,9.734,7.552,12.095,13.827c10.57,0.139,18.806,3.142,19.014,13.826
			c1.772-3.407-0.083-10.447,2.589-12.957c-2.337-7.757-11.062-7.566-14.687-12.1c1.349-6.254-0.245-2.923-1.726-6.91
			c3.756,1.134,8.865,0.921,12.956,1.725c-3.975-15.368,5.119-27.001,5.187-38.02c-0.977,2.534-2.482-1.427-3.457-1.727
			c0.992-12.16-0.627-1.695-2.593,0.865c1.088-5.305,1.683-12.489-1.727-15.554c-2.594,0-5.186,0-7.774,0
			c-1.385,4.379-2.688,8.834-5.186,12.096c-3.351-4.193-4.188-8.801-6.051-11.231c-2.639,0.881-1.755,10.337-4.32,6.047
			c-1.8,3.346,1.291,1.412,0.865,5.185c2.44,1.162,2.167-4.58,3.456-1.726c-1.384,1.494-0.416,5.339-2.591,6.047
			c-0.323-5.236-2.7-4.094-5.183-6.047c2.149,7.966,6.864,19.154,0.863,23.327c2.164,1.143,2.707-3.414,3.456-0.864
			c-0.278,2.082-6.275,2.862-3.456,5.186c0.274-0.998,2.673-4.069,3.456-1.727c-2.22,0.475-6.687,6.601-5.184,5.186
			c2.641-0.818,2.708-4.206,6.05-4.318c-0.625,6.962,1.881,10.793,3.456,15.552c3.3,0.772,5.515-1.411,6.914,0
			c-0.192,1.62-2.228,5.727,0,6.91c0.118-1.607,0.568-2.889,1.727-3.457c-1.019,2.291,1.653,5.09,0,5.186
			c-12.114,1.832-19.165-5.29-21.603-13.828c-0.375-1.297,0.97-2.94,0.865-4.317c-1.036-13.264-17.797-15.569-29.379-18.146
			c0.673-4.499,1.788-10.589-0.867-13.827c0.021,8.441,0.587,10.155-4.319,15.556c-1.518-2.228-1.25-6.245-3.459-7.78
			c-0.925,2.241-2.096,4.235-1.725,7.78c-4.438-3.595-2.08,5.585-5.185,6.045c-4.819-2.815-6.523-0.965-11.231-1.727
			c-0.765,8.181-7.509,3.208-13.829,3.459c0-1.441,0-2.884,0-4.32c-3.446-0.478-2.601-0.478-6.047,0c0.252-0.53,2.152-3.327,0-3.457
			c-0.254,0.769-2.336,3.782-2.593,1.727c7.637-4.138,2.383-7.834,4.322-16.418c2.247,1.735,5.635,1.399,4.319-0.865
			c-0.186,0.676-0.721,1.004-1.727,0.865c-1.296-9.581,2.448-5.454,1.727-4.32c0.959-1.512-2.232-3.949,1.729-5.186
			c-0.078,3.229-0.968,2.463,0,5.186c4.261-2.217,4.838-7.304,5.186-10.369c-0.923,0.806-0.269,3.189-2.59,2.593
			c2.513-4.686,8.124-6.275,9.505-12.095c-1.521-0.787-1.581-3.027-2.593-4.322c-3.748-1.201-5.982,1.427-7.778-1.725
			c1.883-1.626,2.397-4.001,2.593-5.186c8.678,0.614,10.74-5.391,11.233-12.96c-3.099-1.672-3.167,0.33-6.048,0.866
			c0.964-7.614-5.933-5.972-10.369-4.32c-1.345,3.071,2.934,0.52,2.59,2.59c-3.73-0.011-5.693-1.792-8.638-2.59
			c4.073-0.876,5.417,0.865,7.774-1.73c-1.017-0.134-2.452,0.146-2.593-0.862c3.848,0.678,5.186-1.152,8.643-0.865
			c2.006,3.182,6.388,3.98,9.502,6.047c1.112-3.989-3.383-2.373-4.321-4.32c0.867,0,1.729,0,2.593,0
			c-2.801-7.601-8.738,0.595-11.231-7.774c6.293-0.157,7.264,2.548,12.098,5.184c-1.058-4.129-4.124-6.247-6.912-8.641
			c-3.905,2.361-5.045-1.388-8.643-1.729c-0.473,1.254,1.012,4.468-0.862,4.321c-0.895-3.629-3.427-0.607-4.322-3.458
			c3.887-0.912,7.516-1.915,8.641-4.32c0.76,1.529,2.738,2.523,0.864,4.32c7.014-0.963,7.879,4.22,12.1,6.049
			c0.613-2.551,0.236-6.1,2.593-6.912c0.827,2.913-2.649,5.904,0,7.776c0.769-1.821,2.632-2.553,2.593-5.186
			c-1.336-0.207-3.09-4.265-0.866-5.184c0.195,1.533-0.872,4.328,1.725,3.458c-1.37-5.457-3.496-7.131-6.911-8.638
			c0.032-3.142-0.484-6.825,1.726-7.78c-0.174,4.851,1.448,0.947,3.46,0.867c0.136,3.282,0.028,5.478-1.727,2.592
			c5.979,7.208,1.442,17.154,4.317,25.056c0.229-4.668-1.073-10.865,2.594-12.095c-2.007,2.892-1.833,7.959-1.729,12.962
			c1.36,2.443,4.625-1.95,6.049,0.865c-2.087,2.494-1.096,11.792-4.318,10.368c0.534,2.347-1.098,6.861,0.862,7.779
			c2.305-5.481,1.902-17.28,6.049-18.146c-2.68-2.255-2.68-13.3,0-15.552c3.938,0.671,2.658,6.555,4.321,9.503
			c0.368-3.82,5.91-6.654,5.185-8.644c-2.221,0.085-1.236,3.375-3.457,3.456c0.396-4.869-2.427-4.592-5.186-7.773
			c-0.229-3.401,0.334-6.005,2.593-6.913c1.854,1.895,1.559,5.952,4.322,2.592c0.236,1.517-2.435,4.31,0,5.184
			c0.319-2.718,2.018-5.716,3.456-2.593c1.338-3.938,3.461-7.396,1.725-10.369c-0.97,1.114-2.12,6.43-3.454,4.323
			c1.741-3.444,2.063-12.587,0-12.962c0.446,6.352-6.727,1.95-6.913,0c-1.586,3.31-1.938,7.851-3.457,11.233
			c0.508-4.679,0.438-9.933,3.457-12.094c1.104,1.198,4.078,0.524,5.187,1.725c1.514-6.268,6.861-13.288,5.181-19.875
			c-1.787,1.381-1.062,5.273-2.589,6.91c-2.612-3.448-8.118-8.569-5.186-14.687c-0.274,3.445-0.047,6.382,1.727,7.776
			c2.775,0.76,1.186-2.846,3.459-2.593c-0.68,0.601-1.923,4.823,0,5.186c0.733-2.431,2.792-3.545,2.589-6.911
			c-3.998,1.695-1.199-0.816-2.589-1.727c-3.6,0.635-0.273,2.835-3.459,3.455c-0.532-3.7,2.815-3.525,2.594-6.911
			c-3.404,0.525-3.828-1.935-4.32-4.32c4.808,0.486,2.793-5.848,6.912-6.049c-0.77,2.438-5.484,5.413-3.456,7.777
			c1.908-2.7,2.235-6.98,6.049-7.777c-6.498,9.237-1.74,2.531,2.593,0.865c-3.335,2.733,0.449,2.72,0,6.912
			c-1.118,1.763-4.19,1.571-3.459,5.184c0.751,2.55,1.294-2.001,3.459-0.864c-1.003,2.168-3.444,2.894-3.459,6.048
			c3.044-1.661,9.446-12.1,4.322-6.913c-0.143-3.02,0.229-5.529,1.723-6.911c1.894,3.542,1.342,10.291,1.729,12.961
			c1.521-3.662,3.856-6.512,5.187-10.368c-2.438-1.164-2.168,4.58-3.46,1.728c-0.477-0.441-0.436-5.435,0.867-8.642
			c-2.988-1.177-1.26,6.694-3.457,3.457c0.95-2.502,1.069-5.842,4.318-6.047c1.216,3.574-2.461,6.673,0,8.639
			c0.254-2.015,2.338-2.015,2.592,0c-3.433,10.255-8.993,20.891-9.505,29.381c0.975-1.116,2.122-6.43,3.458-4.32
			c-0.387,1.974-4.772,4.367-2.589,6.047c1.062-0.744,2.389-5.562,3.453-3.455c0.829,1.609-2.586,2.886,0,3.455
			c1.559-2.073,5.411,0.572,7.778-3.455c-4.738,3.045-7.887,11.292-6.914,17.279c-1.621,0.896-8.486,8.055-8.639,10.369
			c8.747-5.077,12.026-15.621,16.417-25.058c0.208,1.621,1.425-0.492,1.729,0.862c-4.865,4.475-9.476,18.652-4.322,24.195
			c0.045-9.673-0.238-24.413,11.235-23.328c-2.205,2.711-7.387,6.987-6.049,10.367c1.745-4.302,5.037-7.062,6.911-11.234
			c-2.525-1.636-4.723-11.049,0-12.097c-1.616-1.263-1.018-4.741-4.319-4.32c-2.794,3.979,3.408,10.174,0,14.692
			c-1.893-5.023-0.337-13.484-4.321-16.417c-2.901,2.659,0.896,7.689-2.592,8.638c0.525-2.054,1.166-4.967,0-6.913
			c0.743,1.765-1.356,4.765-1.727,2.595c1.375-3.81,2.715-7.653,6.051-9.503c-1.715,1.631-0.42,4.082,0,6.047
			c2.344,1.824,2.151-1.958,5.185,0c2.518,5.548,4.23,11.898,4.317,19.875c-5.305-0.809-6.937,8.285-10.366,12.1
			c4.978-2.512,5.184-9.793,11.232-11.236c3.73,1.454,2.319,8.049,4.318,11.236c2.425-4.206,3.093-10.159,2.592-17.285
			c-5.048,0-0.987,9.176-2.592,10.371c-1.372-3.175-2.092-12.206,2.592-12.094c3.66,5.254,0.911,12.535,1.728,17.279
			c-1.511-1.634,4.166-6.695,2.594-3.455c2.87-5.915,3.718-12.564,2.592-20.738c-3.674-0.273-4.955,8.292-1.727,9.503
			c0.474-1.254-1.011-4.467,0.864-4.32c-0.031,3.138,0.484,6.82-1.726,7.776c-3.173-3.767-1.759-12.458,1.726-14.686
			c6.708,2.649,0.768,14.281,2.592,19.006c0.226-2.137,2.002-7.135,3.457-5.181c-0.194,1.89-3.897,4.65-1.729,6.046
			c2.766-5.682,5.7-11.997,3.459-20.735c-0.845,0.882-1.709,1.748-2.591,2.592c-0.518-1.536,2.531-3.589,0-4.32
			c0.043,1.488-0.669,2.215-1.729,2.593c-0.534-2.347,1.095-6.86-0.867-7.779c-1.491,0.522,0.068,4.1-1.727,4.318
			c-0.798-6.271,4.274-6.67,6.913-9.504c1.079,3.773-0.002,7.227-0.867,11.236c9.131,0.654-1.185,11.583,4.32,15.554
			c3.78-3.357,2.271-11.88,0.865-13.826c3.979,0.075,2.001,10.637,6.051,7.776c-3.962-0.123,0.556-3.876,0-6.049
			c-1.018-0.137-2.453,0.148-2.593-0.868c0.487-2.103,0.738-4.442,3.456-4.32c1.43,0.018,0.487,2.401,1.729,2.595
			c0.265-2.04,3-1.611,2.593-4.318c-6.096-1.604-4.942-0.325-11.236-1.73c-1.203,1.1-0.374,4.231-2.592,4.32
			c-0.006-3.397,2.662-7.313,0.863-11.234c-0.081,1.357,0.118,2.998-1.724,2.591c-0.322-4.943,3.563-11.034-1.728-13.824
			c-3.035,1.863-1.842,7.952-5.187,9.503c0.511-5.183,4.773-9.495,5.187-12.097c1.069,2.673,2.849,4.637,5.185,6.048
			c0.825-1.609-2.592-2.886,0-3.455c2.753,0.986,1.768,5.714,3.455,7.775c2.852-1.868-1.914-5.373,0-6.049
			c2.204,1.825,5.546,2.521,6.05,6.049c6.21-1.12,15.738,8.888,21.604,13.824c-0.51,1.802-1.818,2.795-2.593,4.32
			c3.059,0.473,2.123-3.057,5.187-2.59c2.257,1.483,3.427,4.06,5.181,6.051c-1.408,0.055-2.384,5.728,0.864,8.638
			c0.373-2.795-1.133-7.472,1.728-7.777c-1.04,10.503,0.856,13.14,4.319,18.146c1.326-3.683-3.965-5.172-0.866-7.777
			c1.117,3.514,3.444,10.356,6.915,8.642c-1.143-3.486-5.612-8.185-4.322-11.234c2.146,1.913,2.925,9.718,5.187,8.643
			c-1.404,0.618-1.404-4.076,0-3.456c0.623,5.321,4.069,2.884,3.456,8.639c4.039-1.048,6.332,4.465,7.773,10.369
			c-1.252,0.474-4.463-1.011-4.318,0.864c1.422,3.11,4.087,1.075,6.052,0c-4.121,4.729-5.259,15.379-2.592,19.875
			c0.386-1.698,3.202-5.344,0.863-6.913c-0.136,1.017,0.148,2.455-0.863,2.593c0.563-10.656,2.305-8.245,4.318-13.826
			c0.746,5.016,1.464,10.058,1.727,15.553c4.838-0.07,0.389-5.504,2.593-6.911c1.057,6.434,5.193,9.78,6.052,16.418
			c-0.488,1.245-1.349,2.107-2.593,2.593c-5.541-2.149-7.138,3.431-14.689,1.725c-1.421,6.933-4.218,12.489-7.778,17.284
			c-2.452-3.085,2.646-4.392,2.596-7.778c-5.395,4.681-12.354,8.828-12.963,16.419c2.623-3.142,4.21-7.313,8.644-8.641
			c-0.269,2.035-3.001,1.606-2.594,4.317c2.027,0.274,1.933,2.674,3.457,3.456c1.189-2.733-2.139-5.217,0-6.048
			c0.804,2.564,4.947,6.371,6.05,3.456c3.539,8.015-2.354,18.038-1.729,25.061c4.882-11.127,8.15-24.261-1.726-30.242
			c2.234-2.085,2.416-6.226,5.182-7.778c0.438,2.713-2.033,3.53,0.866,4.316c-0.046-1.486,0.665-2.211,1.729-2.591
			c3.032,3.637,1.544,6.478,3.456,11.234c-1.828-0.812-3.665-6.059-6.051-3.456c3.229,0.278,0.908,5.496,3.459,4.318
			c-0.303,3.81-3.227,9.951,0,12.099c2.675-1.019-0.134-2.173,1.726-3.46c0.925,0.807,0.27,3.188,2.593,2.593
			c-0.331-3.12-1.148-5.769-2.593-7.776c-0.145,1.294,0.312,3.191-0.866,3.458c0-2.304,0-4.61,0-6.914
			c1.235,0.209,1.46,1.425,2.593,1.728c3.285-5.162-3.38-10.491,0-15.552c2.106,0.487,4.447,0.735,4.322,3.458
			c2.47-3.291,8.231-3.291,11.235-6.051c-0.465,4.237,2.97,9.085,0.862,12.097c-0.459-5.023-2.069-11.193-1.723-1.726
			c5.235,3.941,3.032,11.585,4.317,18.146c0.471-1.257-1.011-4.47,0.861-4.323c0.329,4.652-0.137,12.134-3.456,10.369
			c-0.133,3.845,3.502,0.518,4.318,0C336.621,162.407,336.621,163.272,336.621,164.135z M301.192,128.706
			c-0.354-1.47-1.116,0.183-2.592,0c1.434,4.851-8.144,6.253-6.053,11.237C293.621,134.386,300.408,134.552,301.192,128.706z
			 M290.822,136.486c3.213-1.112,4.041-4.597,6.052-6.912C293.299,130.323,292.038,133.38,290.822,136.486z M299.467,123.525
			c-1.402,2.652-8.013,4.627-6.053,7.773C294.418,128.246,301.624,126.874,299.467,123.525z M301.192,118.34
			c-1.353,2.988-8.38,4.841-6.052,8.641C295.774,123.27,303.029,121.646,301.192,118.34z M296.007,119.205
			c0.051-4.292,1.918-11.303,4.319-10.369c-0.308,2.055-4.17,4.967-1.726,6.911c3.037-1.861,2.238-7.553,6.052-8.643
			c0.823,1.609-2.588,2.89,0,3.455c0.453-2.746,7.447-3.444,4.315-6.912c-0.448,0.334-1.278,4.201-1.727,1.73
			c-0.08-2.725,3.211-6.519,0.868-8.638c-0.948,2.51-0.812,6.1-2.598,7.773c-0.864-6.068,4.839-10.122,1.729-15.554
			c-2.189,4.15-0.399,12.274-6.049,12.962c-1.418-4.259,3.24-9.376-1.726-9.504c0.009,5.19,0.133,10.503-3.46,12.096
			c-3.371-2.724,3.082-9.946-1.726-11.236c-1.954-0.404,1.987,4.69-0.867,5.186c0.37-2.455-1.822-6.721-3.454-4.32
			c1.969,1.199,0.32,6.015,0.862,8.643c2.441,0.87,2.168,1.269,3.459,1.728c0.536,4.612-6.12,9.141-1.729,12.097
			c2.463-3.009,1.546-9.4,5.187-11.234c-1.547,5.363-2.983,10.84-6.051,14.687c-1.617-1.549-1.033-5.303-3.456-6.047
			c-0.534,4.074-3.92,5.296-4.322,9.505c4.167,0.414,2.128-5.365,5.187-6.053c0.004,2.649-3.464,6.263-0.864,8.643
			c-0.239-1.97,0.208-3.248,1.729-3.456c0.726,4.345-4.091,9.842,0,12.094c-1.366-3.381,2.242-1.789,2.588-3.457
			c-1.278-0.73-1.249-2.784-1.726-4.318c3.07-0.103,3.476-2.861,3.459-6.051c5.356-0.121,14.212-8.033,14.687-12.961
			C304.67,111.738,299.553,114.682,296.007,119.205z M309.834,116.612c-0.513-1.791,1.068-5.68-0.866-6.053
			C308.232,111.282,306.602,117.314,309.834,116.612z M287.366,114.882c-4.308,0.211-8.89,8.694-4.319,12.097
			C280.852,121.391,285.499,118.867,287.366,114.882z M283.047,113.156c-7.467,2.331-4.974,18.527-2.592,21.602
			C278.716,124.828,281.449,118.087,283.047,113.156z M278.725,116.612c-4.591,1.744-6.608,6.068-11.231,7.774
			c0.09,2.215,0.486,4.122,1.724,5.188c-0.412-3.296,4.002-1.761,2.595-6.049c1.104,0.046,1.197,1.105,2.591,0.861
			c0-1.152,0-2.302,0-3.456C276.952,123.223,277.413,118.191,278.725,116.612z M263.171,125.25
			c3.593-3.031,6.864-6.388,10.367-9.503C269.433,117.699,262.771,121.664,263.171,125.25z M275.269,122.659
			c0,3.168,0,6.338,0,9.505C278.716,131.826,277.931,123.981,275.269,122.659z M300.326,151.174c1.522,2.97-1.166,5.406,1.729,6.913
			c0.137-1.018-0.147-2.455,0.864-2.591c-0.237,6.051-4.327,14.526,0,15.551c0.404,2.215-3.057,4.897-0.864,6.053
			c1.535-8.919,2.451-20.093,1.729-26.79c-0.149,1.292,0.309,3.189-0.865,3.459c-1.229-3.872,2.329-7.399,0-9.506
			c-1.706,0.603,0.214,4.82-1.729,5.186c-1.254-3.067-1.741-6.902-6.049-6.914C291.556,147.281,298.864,148.312,300.326,151.174z
			 M327.117,183.142c-1.138,0.018-1.104,2.401,0,2.592c2.011-3.994-0.308-8.127-1.729-11.229
			C323.876,177.552,324.413,181.903,327.117,183.142z M329.706,189.193c0.417-1.54,0.921,0.374,1.729,0.864
			c-0.669-2.209,3.38-3.972,0.863-5.185c-0.419,1.022-0.922,1.96-1.726,2.589c1.928-3.586-0.702-6.41,0-11.23
			C326.888,179.351,331.412,186.199,329.706,189.193z M243.298,311.894c0.937-1.988,7.067-3.246,4.319-6.049
			C245.977,307.124,242.002,310.539,243.298,311.894z M255.395,267.826c-5.212,1.285-6.366,6.529-6.047,9.504
			c1.19-2.551,3.988-3.498,5.182-6.05c-2.205-0.936-3.021,3.719-4.318,0.861C251.908,270.675,254.533,270.127,255.395,267.826z
			 M253.668,264.369c-0.893,2.274-3.428,2.913-4.32,5.183C251.902,269.472,256.243,266.718,253.668,264.369z M181.947,156.359
			c-0.975,3.565-2.479-3.562-3.454,0c4,1.473,1.38,9.56,5.181,11.234C183.719,163.228,183.341,159.29,181.947,156.359z
			 M157.755,145.99c-3.171,0.319-7.885,3.59-6.05,6.047C153.242,149.544,157.264,149.53,157.755,145.99z M163.802,153.769
			c-1.63-0.196-1.904,0.974-3.455,0.863c-1.761-4.681,5.229-5.082,2.593-7.777c-4.017,1.746-2.996,8.525-8.642,8.642
			c-0.421-2.51,3.579-4.968,1.728-6.049c-1.185,1.986-3.557,2.779-5.186,4.32c0.943,2.512,0.81,6.104,2.595,7.773
			c1.742-6.535,1.501,5.842,2.593,2.593c0.471-1.254-1.01-4.466,0.866-4.318c-0.134,1.156,1.355,4.762,1.726,2.592
			c-0.273-1.17-1.229-1.649-0.863-3.457C162.519,159.972,162.246,155.956,163.802,153.769z M176.767,145.125
			c-0.137-1.016,0.145-2.453-0.866-2.593c-5.851,3.666-12.877,10.736-12.963,17.282c3.777-4.288,4.639-11.491,11.231-12.96
			c-0.688,4.121-8.176,9.003-4.319,12.096c1.637-5.837,4.972-9.595,7.775-12.096c1.265,2.479,1.172,6.319,3.456,7.775
			c-0.317-4.12-0.591-4.427-1.725-8.639c2.086,3.538,3.132-5.499,0-4.32C177.884,142.212,177.933,144.278,176.767,145.125z
			 M165.533,158.086c3.335-0.694,2.873-5.191,5.182-6.913C167.63,152.118,167.34,155.861,165.533,158.086z M224.29,116.612
			c-0.148,1.294,0.312,3.189-0.868,3.455c0.416-2.719-1.23-3.375-1.726-5.183c-4.978,2.966-6.18,4.396-12.095,6.048
			c-1.522-0.207-1.973-1.485-1.729-3.459c4.903,2.112,2.784-3.221,7.779-4.315c0.134,1.017-0.147,2.453,0.86,2.591
			c2.098-1.718-1.456-3.692,1.728-4.32c-0.282,2.085,6.514,4.103,6.052,0.865c-3.303,0.245-6.687-2.578-9.505-5.186
			c0.128,2.146,0.161,4.194-1.726,4.32c-2.047-2.475-4.896,0.861-6.914-0.867c-4.274,4.078-4.097,12.611-9.504,15.557
			c-0.119-1.61-0.564-2.888-1.726-3.456c-1.793,2.909-7.844-2.005-11.234-0.866c0.086,5.272-5.333,5.033-5.186,10.371
			c-2.491-3.398-2.862,4.602-1.724,0c1.103,2.477-0.01,5.305,0.859,9.503c6.548-0.929,1.273-13.295,5.186-14.689
			c0.465,3.983-2.875,9.219,0.864,11.231c-4.159,1.392-0.73,12.128,1.729,9.503c-1.412,0.392-1.412-4.706,0-4.317
			c0.137,1.016-0.146,2.455,0.864,2.594c3.097-4.732-1.038-16.457,3.46-21.606c0.099,5.863-3.967,15.967,0.865,16.418
			c-0.854,2.075-4.932,5.381-2.592,7.779c2.36-2.553,4.812-9.566,7.776-8.641c-10.626,8.441-3.836,18.642,0.861,27.65
			c7.285-0.661,10.13,3.123,16.42,3.456c1.178-5.206-2.011-6.053-1.729-10.368c-6.566-1.411-12.395,2.111-17.28-5.184
			c4.074-4.475,3.791-5.467,6.048-9.502c-0.462,5.605,1.397-1.274,2.593,1.723c-0.746,2.177-5.792,4.518-3.454,6.914
			c1.072-4.443,6.604-6.472,2.592-11.234c0.921-0.805,0.27-3.187,2.589-2.593c-0.249,0.532-2.146,3.327,0,3.458
			c2.593-4.141-0.834-7.794-2.589-6.051c0.973-3.342,1.63-7.006,4.316-8.638c-3.961,7.922-0.326,5.502,1.729-0.868
			c-3.219,1.343-7.636,0.155-9.502,0.868c-0.54,2.345,1.093,6.855-0.865,7.777c0.417-2.726-2.653-1.958-1.729-5.185
			c2.836,2.579,0.956-4.794,4.317-4.321C210.655,131.246,227.349,125.646,224.29,116.612z M199.23,157.221
			c1.709-4.624,7.209-5.46,7.772-11.231C204.483,149.241,198.839,153.926,199.23,157.221z M206.143,105.378
			c-0.811,3.171-3.139,4.676-1.728,7.778c0.508-1.803,1.816-2.797,2.595-4.32c-0.672-0.195-1.706-0.026-1.729-0.868
			C206.323,108.235,208.259,105.475,206.143,105.378z M210.461,99.33c-2.832,1.199-4.092,3.967-6.05,6.048
			C207.801,104.734,209.062,101.963,210.461,99.33z M200.092,108.833c-0.895,6.016-5.235,8.581-6.912,13.826
			c4.155-0.459,2.559-6.658,6.912-6.912c-1.368,1.553-4.289,6.021-1.727,8.639C199.325,119.952,204.258,112.964,200.092,108.833z
			 M166.396,146.854c3.48-1.704,6.645-3.725,10.371-5.184c-0.2-1.529,0.871-4.327-1.73-3.46
			C174.738,142.982,164.877,139.989,166.396,146.854z M170.714,138.21c-3.557,0.22-8.061,4-6.912,6.051
			C165.763,141.903,170.679,142.495,170.714,138.21z M158.619,138.21c3.217-1.102,7.175-1.463,8.642-4.32
			C164.504,132.042,158.154,133.977,158.619,138.21z M180.22,90.687c-1.529,3.589-1.611,12.323,1.728,13.826
			C183.222,100.018,183.326,93.218,180.22,90.687z M197.505,88.959c1.777-1.709,4.468-7.004,6.906-5.185
			c-1.293,1.589-3.604,2.157-4.319,4.32c2.984,0.044,7.959-5.961,3.458-7.779C202.484,83.595,195.74,85.726,197.505,88.959z
			 M216.511,81.183c0.587-3.231,2.873,0.641,3.457-2.591c-2.031-2.092,3.013-4.433,3.458-6.913
			C220.242,73.414,216.749,79.379,216.511,81.183z M248.481,43.161c1.541-0.478,3.59-0.439,4.319-1.725
			C251.514,40.065,247.875,40.173,248.481,43.161z M194.045,31.933c-0.869,1.147-0.816,3.212-2.593,3.455
			c0-0.48-0.697-0.978-0.865,0C192.559,39.06,197.781,33.838,194.045,31.933z M199.23,53.53c-0.423-2.727,1.556-3.049,0.861-6.05
			c-1.187,0.04-1.895-0.405-2.587-0.863C198.537,50.012,196.583,51.389,199.23,53.53z M262.312,54.396
			c1.629-0.195,1.901,0.974,3.452,0.868c0.88-1.14,0.85-3.187,1.729-4.322C264.927,51.256,263.233,52.438,262.312,54.396z
			 M266.628,48.347c-1.506,0.063-2.688-0.193-3.457-0.867c0.274,2.006-0.137,3.317-0.862,4.32
			C264.841,51.746,265.52,49.828,266.628,48.347z M257.126,58.716c0.392-2.806,5.776-8.765,2.594-9.504
			C258.849,51.835,254.552,55.525,257.126,58.716z M278.725,56.988c2.149,0.136,2.675-1.356,4.321-1.725
			c-0.148-1.295,0.309-3.191-0.867-3.461C281.121,53.62,279.79,55.174,278.725,56.988z M268.357,56.988
			c0.534-1.806,4.431-3.246,0.862-4.318C268.968,53.691,265.743,55.931,268.357,56.988z M263.171,61.306
			c0.37-1.643,1.859-2.168,1.729-4.318c-1.235-0.208-1.459-1.423-2.592-1.725C261.126,56.426,260.656,61.293,263.171,61.306z
			 M279.591,60.446c0.669-2.21,5.567-0.191,5.186-3.458C282.366,56.943,277.367,58.72,279.591,60.446z M275.269,64.767
			c-1.958-3.108-1.257-5.523-3.456-6.913c-3.136,6.208-5.874,12.975-6.908,19.009c2.706,0.407,2.434-2.174,3.453-3.456
			c-3.105-1.158,1.444-8.663,3.458-10.368c0.517,1.537-2.533,3.586,0,4.318c0.864-1.152,1.424-2.609,2.591-3.458
			C274.367,64.822,274.816,66.097,275.269,64.767z M257.986,58.716c-0.182,5.068,0.344,8.304-2.592,13.827
			c3.654-0.67,1.941-6.7,5.185-7.776c1.716,1.163-0.273,6.033,2.592,6.045c0.54-4.038,6.559-6.326,4.322-10.366
			c-3.583,0.164-2.928,4.565-6.049,5.183C262.702,61.137,260.371,62.545,257.986,58.716z M257.126,81.183
			c-1.526-0.753-2.675-2.891-3.458,0c3.042,3.104-4.771,7.263-2.594,9.504c2.594-1.728,2.303-6.344,6.052-6.913
			c0.136,1.016-0.148,2.455,0.864,2.595c1.629-2.979,5.392-3.828,6.048-7.776c-3.061-0.187-1.708,4.052-5.183,3.456
			c2.234-2.964,7.892-7.062,5.183-12.098C262.234,74.194,259.914,77.924,257.126,81.183z M277.862,61.306
			c0.138,2.152-1.357,2.677-1.727,4.32c3.244-1.075,6.646-1.996,7.773-5.182C281.881,60.721,280.669,61.809,277.862,61.306z
			 M281.317,65.629c6.347,3.369-3.175,6.6,0,11.234c0.22-3.235,1.355-5.556,3.459-6.913c-0.261,1.7,1.166,1.714,1.727,2.595
			c0.664,2.203-3.383,3.971-0.867,5.182C289.341,73.85,287.905,66.063,281.317,65.629z M289.96,69.087
			c-1.379-1.79-1.876-4.462-4.321-5.188C284.119,65.151,288.314,71.141,289.96,69.087z M277.862,72.543
			c2.712,0.403,2.438-2.177,3.459-3.456C278.616,68.687,277.464,69.836,277.862,72.543z M271.812,81.183
			c1.248,1.91,2.107-1.087,2.593,0.865c0.132,4.38,2.211-3.632,5.186-3.456c-0.276,1.057,0.137,5.332,0.864,2.591
			c1.127-3.828-3.682-3.996-0.864-6.913c-4.21-1.328-2.593,3.171-4.322,4.322c-0.909-4.368,1.971-4.947,1.729-8.645
			C272.515,70.937,274.628,78.524,271.812,81.183z M251.074,82.913c0.311-2.056,4.171-4.969,1.727-6.913
			C252.888,78.446,249.379,81.712,251.074,82.913z M294.281,83.774c0.445-2.475,4.522-5.786,2.593-7.774
			C296.567,78.618,292.566,82.001,294.281,83.774z M211.328,82.048c-0.259-1.699,1.166-1.714,1.727-2.593
			c-2.072,0.34,0.479-3.938-2.594-2.593C210.96,78.382,209.419,81.942,211.328,82.048z M228.605,84.639
			c0.589-2.055,3.912-5.817,1.729-7.776C229.922,79.091,226.852,83.102,228.605,84.639z M193.18,84.639
			c2.623-0.829,9.087-6.078,6.055-6.912C198.148,80.963,194.396,81.533,193.18,84.639z M234.658,85.503
			c0.35-1.732,2.141-6.411,0-7.778C234.958,80.112,232.176,83.794,234.658,85.503z M245.891,88.094
			c-0.547-3.753,4.218-6.671,1.727-9.502C247.581,81.758,242.99,84.856,245.891,88.094z M253.668,97.601
			c4.267-6.145,3.791-7.108,9.503-12.096c0.304,3.11,1.324,4.163,0,6.912c3.277-0.469,5.069-2.418,4.322-6.912
			c-2.165,0.107-2.71,1.648-3.46-0.867c0.854-0.683,3.291-4.058,1.727-4.321C261.328,85.11,253.647,91.234,253.668,97.601z
			 M251.074,95.01c2.976-0.225,6.465-8.083,5.186-6.914C254.607,90.478,252.423,92.326,251.074,95.01z M185.407,87.232
			c-0.308-2.574-0.502-5.259-2.593-6.049C182.927,83.945,181.96,87.796,185.407,87.232z M237.25,88.959
			c0.91-0.896,1.783-6.168,0-6.911C238.462,85.07,234.825,87.576,237.25,88.959z M270.084,86.369c-2.147-0.133-0.249-2.926,0-3.456
			c-1.188-0.039-1.896,0.405-2.591,0.861c-0.193-0.672-0.023-1.704-0.865-1.726C267.3,83.46,268.503,88.721,270.084,86.369z
			 M272.676,88.959c0.144-3.023-0.227-5.529-1.726-6.911C271.663,84.217,269.27,89.486,272.676,88.959z M210.461,89.827
			c-0.403-2.214,3.057-4.899,0.867-6.053C210.878,85.134,208.001,88.401,210.461,89.827z M232.065,90.687
			c0.19-1.621,2.228-5.726,0-6.913C232.738,86.98,228.519,89.71,232.065,90.687z M283.047,89.827
			c-0.521-1.784,1.395-6.004-1.726-5.188C281.839,86.419,279.927,90.644,283.047,89.827z M226.879,93.277
			c0.761-2.162,4.006-6.306,2.594-7.773C228.519,87.476,225.202,91.543,226.879,93.277z M219.106,94.143
			c-3.183-0.298-2.615,3.151-3.459,5.187c-2.587,0.175,0.825,3.587,0,0c2.492-2.997,7.109-8.422,6.049-12.098
			c0,0.575,0,1.156,0,1.727C219.838,89.693,218.639,91.087,219.106,94.143z M207.87,92.417c0.046-0.525,0.131-1.023,0.865-0.865
			c-0.629,3.785,1.717-0.696,1.726,1.725c0.129,1.152-2.905,3.219-0.864,3.463c0.369-1.652,2.47-1.566,1.729-4.322
			c-1.143-0.014-0.789-1.517-1.729-1.729C209.847,91.659,205.532,90.633,207.87,92.417z M201.823,101.056
			c2.938-1.874,3.066-7.686,1.727-9.503C204.2,94.736,199.532,97.218,201.823,101.056z M212.193,98.462
			c3.831,1.611,5.125-6.861,1.728-6.91C213.871,94.382,211.461,94.855,212.193,98.462z M285.639,91.552
			c-1.317,1.238-0.841,4.502,1.728,4.32C287.495,93.731,287.527,91.681,285.639,91.552z M238.977,101.056
			c0.423-2.788,3.158-5.105,0-6.913C238.174,96.551,235.85,99.282,238.977,101.056z M242.437,100.196
			c-1.048-2.66,3.768-6.117,0-6.053C242.437,95.685,240.106,99.17,242.437,100.196z M258.853,105.378
			c3.39-3.635,7.09-5.879,7.775-11.235C263.819,99.15,254.643,109.884,258.853,105.378z M256.26,101.056
			c0.202-0.249,4.925-3.009,3.46-6.048C258.036,98.823,252.461,105.743,256.26,101.056z M225.153,101.921
			c0.569-1.793,4.955-4.186,2.593-6.049C227.175,97.665,222.792,100.058,225.153,101.921z M236.384,101.921
			c0.418,2.722-2.651,1.956-1.726,5.183c2.438,0.137,2.17-2.442,3.456-3.458c-2.228-0.938-0.757-5.579-2.592-6.906
			c0.071,2.428-4.2,4.937-1.727,6.906C233.036,101.87,236.645,100.377,236.384,101.921z M282.181,101.056
			c0.265-2.04,3.004-1.608,2.596-4.316C282.542,96.317,279.878,99.793,282.181,101.056z M199.23,107.968
			c3.216-1.572,10.015-8.163,6.91-10.367C204.005,101.225,200.477,103.457,199.23,107.968z M163.802,101.056
			c0.119,1.612,0.567,2.886,1.73,3.458c0.721-1.363,3.731-4.818,1.728-6.051C166.506,99.728,166.573,101.811,163.802,101.056z
			 M181.947,108.833c1.768-1.403,1.622-4.718,4.319-5.188c-2.289,0.276,0.807-4.838-2.593-3.453
			C184.794,104.007,180.294,110.099,181.947,108.833z M244.163,108.833c-0.292-4.135-0.07-6.863-0.865-8.64
			C241.849,102.077,243.177,106.712,244.163,108.833z M211.328,104.513c2.272,0.26,2.834-1.196,2.593-3.458
			C211.647,100.795,211.087,102.252,211.328,104.513z M316.745,106.241c1.188-1.11,1.507-5.166-0.866-5.186
			C315.272,103.213,315.031,104.609,316.745,106.241z M321.064,114.02c0.474-2.064,3.218-6.259,0-6.913
			C320.151,108.004,319.281,113.274,321.064,114.02z M187.999,117.472c0.341-2.858,5.407-5.487,3.457-7.772
			C191.522,112.968,185.774,114.911,187.999,117.472z M185.407,116.612c0.199-1.343,3.32-4.034,0.864-5.186
			C186.072,113.652,181.81,115.579,185.407,116.612z M250.211,119.205c2.312-2.317,9.148-4.647,7.775-7.778
			C256.393,114.459,249.193,116.43,250.211,119.205z M244.163,117.472c-0.244-1.856,5.654-4.23,0.865-5.182
			C246.354,115.157,240.937,115.556,244.163,117.472z M186.267,119.205c-0.526-2.928-5.524-1.388-5.186-5.186
			c-1.188-2.749-0.855,3.053-0.865,4.32c-2.384-2.362-0.809,1.263-2.591,1.725c-0.148-1.289,0.312-3.19-0.861-3.455
			c0.543,2.906-2.841,6.299-0.868,7.773c2.076-3.106,7.604-2.764,9.505-6.046C185.368,119.258,185.81,120.531,186.267,119.205z
			 M228.605,117.472c2.713,0.41,2.439-2.171,3.46-3.455c-2.004,0.083-3.632,3.987-3.46-0.863c-2.162-0.146-2.7,1.326-3.457,2.591
			C226.684,115.945,229.481,114.875,228.605,117.472z M162.94,126.116c2.862-0.305,3.747-2.589,5.186-4.32
			c-2.677-0.204-2.696-3.062-3.457-5.184c-3.646,4.418-9.294,6.833-13.829,10.369C156.256,128.88,164.287,120.072,162.94,126.116z
			 M245.891,129.574c-0.816-2.247-1.577-5.077,0.864-6.049C243.394,119.589,242.992,129.81,245.891,129.574z M302.055,127.843
			c2.434,0.125,2.494-2.116,2.598-4.317C301.978,123.378,300.766,126.563,302.055,127.843z M171.58,135.619
			c0.448-3.327,4.493-7.562,2.591-10.369C174.167,129.018,169.758,132.893,171.58,135.619z M219.968,127.843
			c2.733,0.879-3.908,3.998-0.861,5.186c1.874-1.294,1.377-4.958,4.315-5.186c0.828,1.611-2.585,2.888,0,3.456
			c1.039-1.65,4.599-6.159,0-6.048C224.806,128.653,219.694,125.553,219.968,127.843z M285.639,132.167
			c0.192-1.621,2.228-5.727,0-6.914C286.635,128.059,282.997,130.567,285.639,132.167z M159.483,130.434
			c-0.526,3.177,7.422,2.31,6.049-0.863C162.728,129.071,161.511,130.158,159.483,130.434z M228.605,135.619
			c0-1.542,2.328-5.027,0-6.048C228.609,131.117,226.283,134.599,228.605,135.619z M225.153,139.078
			c1.056-1.309,1.698-7.445,0-8.644C225.271,132.92,222.753,137.174,225.153,139.078z M317.609,133.028
			c-0.793,5.562,2.569,10.445-1.727,12.962c0.707,2.457,1.95,4.385,4.318,5.182c0.216-3.667-2.26-4.652-1.725-8.642
			c4.596,0.982,0.386-4.215,3.456-6.045c0.586,2.381,0.155,1.97,2.593,3.456c-0.065,1.208,0.19,3.302,0.865,1.728
			c-0.548-5.826-0.475-8.437,1.728-10.371C323.517,129.091,322.148,137.985,317.609,133.028z M209.602,133.028
			c0,0.577,0,1.152,0,1.727c-0.483-0.002-0.981,0.699,0,0.864c2.008-2.232,3.493,7.956,4.319,6.911c0-2.014,0-4.029,0-6.045
			c-1.249-1.912-2.109,1.083-2.593-0.867c0.62-0.711,2.711-5.589,0.865-3.455C211.182,134.441,211.117,135.173,209.602,133.028z
			 M308.104,139.078c-0.386-1.632,1.173-5.211-1.729-4.32C305.868,136.809,305.052,138.778,308.104,139.078z M332.299,148.581
			c-0.905-4.736-1.01-9.735-4.318-13.826c-1.699,5.065,3.725,7.593,0,9.504C329.754,144.852,330.815,150.562,332.299,148.581z
			 M214.786,136.486c1.782,2.536-0.943,9.583,2.594,10.367C215.684,144.225,217.725,137.864,214.786,136.486z M155.162,145.99
			c4.986-1.065,7.813-4.284,10.371-7.78C161.088,139.255,155.624,143.836,155.162,145.99z M275.269,173.639
			c4.055-9.321,15.83-16.312,10.37-27.648c-3.657,0.482-2.941-3.399-6.048-3.46c-2.59,8.075-14.701,11.22-15.555,18.147
			c-0.151-1.963,2.918-5.037,3.457-3.458c-1.713,1.993,0.218,0.961,0.864,2.593c-0.864,1.152-1.427,2.609-2.593,3.458
			c-1.8-0.492-2.793-2.47-4.316-0.865c1.646,12.928-7.545,19.364-6.05,29.377c0.903,6.062,8.486,11.48,11.232,18.146
			c1.905,4.626-0.05,8.724,3.455,12.96c0.843-19.9,21.094-20.382,32.837-29.376c-0.295-2.071-3.394-5.745-1.726-6.912
			c1.203,1.097,0.373,4.232,2.593,4.319c0.692-3.001-1.29-3.322-0.867-6.053c-4.112-0.453-4.634,2.784-8.642,4.322
			c-0.573-5.731,2.319-10.139-0.864-12.094c-2.841,4.067-4.76,9.06-6.048,14.684c-0.501-4.816,0.997-7.644,1.727-11.23
			c-4.33,0.565-1.814,7.978-4.318,10.371c-0.515-1.794,1.068-5.681-0.868-6.055c-1.259,1.62-0.031,5.729-1.727,6.91
			c-2.351-4.665,1.502-9.801,3.458-12.959c-4.783-1.039-5.019,2.466-8.64,2.595c0.546-2.353,5.896-2.489,3.457-5.187
			C277.08,176.098,278.879,171.408,275.269,173.639z M330.573,158.953c-1.354-3.255-0.094-9.126-1.731-12.097
			c-0.861,0-1.724,0-2.588,0C327.935,150.638,326.103,157.947,330.573,158.953z M185.407,153.769
			c-2.273-1.184-0.41-6.509-4.322-6.054C181.555,150.168,184.094,155.021,185.407,153.769z M297.733,153.769
			c-0.087-3.658-2.327-5.164-5.186-6.054C294.468,149.544,294.545,153.213,297.733,153.769z M306.376,156.359
			c-0.531-2.149,3.151-6.735-0.864-6.91C306.041,151.513,304.428,155.714,306.376,156.359z M203.55,157.221
			c2.784-1.249,3.831-4.233,5.186-6.911C205.952,151.561,204.902,154.543,203.55,157.221z M321.931,153.769
			c4.07-1.377,1.505,5.721,4.319,7.773c2.216-4.269-0.925-9.779-4.319-11.232C321.931,151.462,321.931,152.615,321.931,153.769z
			 M177.629,156.359c-0.522-1.784,1.393-6.004-1.729-5.185C174.651,153.851,176.043,154.529,177.629,156.359z M289.096,154.629
			c-1.104,4.101-4.035,10.918-2.593,14.689c0.419-1.537,0.925,0.373,1.729,0.863c0.636-2.303,3.158-10.758,1.729-9.502
			c-1.015,1.294-1.075,3.536-2.594,4.318C287.304,161.447,291.095,157.25,289.096,154.629z M294.281,155.496
			c3.53,1.695-1.004,7.477-2.594,9.502c1.039-2.177,3.471-11.153-0.865-8.641c3.853,2.659-2.192,8.956,0,12.096
			c-0.623-1.415,1.717-3.758,1.726-1.727c-0.905,0.046-0.678,1.107,0.866,0.864c-0.623-2.642,1.489-2.541,0.867-5.184
			c2.719,0.988,2.097-1.358,3.457-1.728c-0.092,2.21-0.491,4.121-1.729,5.184c-0.135-1.016,0.146-2.453-0.865-2.59
			c-0.13,2.146,0.447,3.583,1.729,4.318c1.453-2.604,4.206-8.435,1.727-12.095c-0.662,2.506-1.366,4.968-3.46,6.047
			C296.731,159.972,297.921,152.848,294.281,155.496z M325.388,164.135c-2.005-3.18-1.331-9.037-6.049-9.503
			c-0.237,3.697,2.637,4.273,1.726,8.642C322.79,163.283,324.81,164.562,325.388,164.135z M175.036,169.318
			c-0.084-3.08-0.402-5.932-2.589-6.909C173.711,164.31,172.343,168.848,175.036,169.318z M298.601,178.822
			c0.327-0.51,0.438-11.599-0.867-10.367C298.157,172.476,295.137,176.728,298.601,178.822z M304.652,173.639
			c1.63,0.194,1.902-0.972,3.457-0.863c-0.291-2.016-0.887-3.723-2.598-4.32C306.138,171.094,304.629,171.605,304.652,173.639z
			 M281.317,176.231c1.189-0.038,1.897,0.408,2.592,0.868c-0.221-3.101,2.594-3.169,2.594-6.053
			C283.709,171.709,281.978,173.439,281.317,176.231z M308.104,175.367c1.208,2.484-2.355,4.392,0,5.187
			c0.304-2.862,2.588-3.751,4.317-5.187c-0.478-1.539-0.444-3.587-1.729-4.32c-1.689,1.614-0.264,3.168,0,5.185
			C309.589,176.188,309.498,175.124,308.104,175.367z M305.512,187.462c0.078-1.532,3.555-6.327,0-6.045
			C306.706,184.149,303.371,186.631,305.512,187.462z M217.38,191.784c0.942-2.259,5.439-5.448,4.316-6.911
			C220.845,187.224,215.616,189.688,217.38,191.784z M217.38,195.242c2.631-0.008,5.65-4.075,4.316-5.185
			C220.802,192.331,218.27,192.97,217.38,195.242z M250.211,199.562c2.145-0.5,3.721-6.007,2.59-6.914
			c-0.208,0.942-1.424,2.076-1.727,0.868c0.241-1.298,3.719-3.642,1.727-4.321C249.245,191.878,251.788,195.404,250.211,199.562z
			 M254.533,200.429c-1.307-2.764,2.506-6.616-0.865-6.049C254.397,197.451,251.166,199.554,254.533,200.429z M258.853,203.883
			c-0.291-2.015-0.883-3.724-2.593-4.318C253.941,201.868,257.48,202.727,258.853,203.883z M242.437,205.609
			c1.453,0.354,3.883,4.074,5.181,1.73c-2.645-0.564-4.584-3.68-1.727-5.188c0.136,1.02-0.147,2.456,0.864,2.597
			c-0.036-1.188,0.409-1.9,0.865-2.597c-1.002-0.722-2.315-1.139-4.321-0.864C244.013,203.733,242.079,203.527,242.437,205.609z
			 M260.579,241.043c-0.473-0.756,0.808-0.735,0.866-0.867c-3.876,8.987,0.206,4.107,0.867-1.73
			C262.453,239.615,257.915,240.175,260.579,241.043z M250.211,247.951c0,0.865,0,1.729,0,2.595
			c2.349-0.536,4.046-1.717,5.184-3.458C252.766,246.843,252.037,249.854,250.211,247.951z M257.126,248.816
			c-3.426,0.921-8.248,4.969-6.052,8.643c1.189-1.735,6.562-3.753,4.32-6.051c-1.6,1.28-1.293,4.465-4.32,4.317
			C252.155,252.489,255.477,251.491,257.126,248.816z M250.211,263.506c0.194-2.169,4.38-4.762,2.59-6.052
			C252.232,259.25,247.848,261.642,250.211,263.506z M257.126,268.692c2.528-0.89,2.802-2.685,4.319-2.596
			c-2.211-1.466,1.858-5.772-1.726-6.909c0.142,1.953-4.156,3.795-1.729,5.182c0.866-1.147,0.816-3.215,2.593-3.456
			C260.471,264.549,257.23,265.054,257.126,268.692z M248.481,292.021c-0.336-1.49,1.282-2.22,0-2.594
			c-1.12,1.147-1.138,3.215,0.866,3.456c0.669-0.871,4.143-3.207,1.727-4.318C250.204,289.71,250.261,291.779,248.481,292.021z"/>
		<path fill="#FFFCF2" d="M184.541,68.221c3.949,2.586-2.079,3.832-0.867,8.642C181.442,77.763,184.188,70.324,184.541,68.221z"/>
		<path fill="#FFFCF2" d="M163.802,93.277c-5.518-1.341-8.537-3.861-6.912-10.364c0.655,0.677,2.949,5.346,0,4.317
			c1.437,1.732,2.319,4.017,5.186,4.32c0.699-0.166,0.864-0.868,1.728-0.866c-1.098-1.778-1.376-4.382-4.321-4.317
			c0-1.73,0-3.456,0-5.186C160.736,85.375,165.863,88.435,163.802,93.277z"/>
		<path fill="#FFFCF2" d="M143.926,93.277c1.546,2.202,4.274,3.219,3.46,7.779C146.346,98.352,145.017,95.938,143.926,93.277z"/>
		<path fill="#FFFCF2" d="M237.25,20.696c0.759,3.432-1.244,11.937-0.866,15.555C232.651,33.685,237.301,25.268,237.25,20.696z"/>
		<path fill="#FFFCF2" d="M233.792,24.154c-2.858,5.206,3.345,18.797-1.727,22.466C235.792,39.899,228.398,31.74,233.792,24.154z"/>
		<path fill="#FFFCF2" d="M229.473,25.882c1.27,1.621,1.494,6.896,0.866,7.776c-1.877,0.146-0.393-3.064-0.866-4.32
			c-2.261,1.199-1.305,5.606-3.455,6.914c-2.596-2.723-5.888,0.676-7.778,3.456c-3.188-4.376,5.902-3.865,5.183-8.641
			c2.601-0.87,1.531,1.924,1.727,3.458C228.01,33.057,227.387,28.115,229.473,25.882z"/>
		<path fill="#FFFCF2" d="M187.999,26.745c3.107-0.423-0.779,4.992-2.592,5.186C184.22,28.156,188.751,30.091,187.999,26.745z"/>
		<path fill="#FFFCF2" d="M172.447,45.756c6.662,2.794-0.115,7.409,0,12.959c5.431-3.982,4.893-11.061,3.453-18.145
			c3.083,2.63,2.593,7.504,1.729,12.097c2.64-3.662,2.414-7.692,1.728-12.964c3.711,4.25,1.325,8.516,0,13.826
			c3.334,0.165,0.921-5.415,2.591-6.91c2.616,2.119-0.652,5.62,0,8.644c3.336,0.161,0.92-5.42,2.594-6.915
			c1.716,1.566-2.002,10.612,1.726,9.505c-0.446,3.982-2.923,0.921-5.186,3.455c0.63-2.642-1.489-2.542-0.865-5.186
			c-1.517,0.211-1.968,1.487-1.723,3.462c0.304,1.352,1.521-0.761,1.723,0.864c-3.582,3.674-7.547,9.402-6.047,15.552
			c-4.966-3.737-2.821-10.174-1.728-16.416c-3.081,0.951-1.81,6.25-3.456,8.638c-1.359-3.628,0.612-8.76-0.865-12.958
			C171.737,54.266,171.568,49.488,172.447,45.756z M173.307,47.483c-0.169,3.034-4.078,6.817-1.727,9.505
			C171.768,53.971,175.026,49.54,173.307,47.483z M174.171,68.221c-0.3-2.383,2.482-6.068,0-7.775
			C173.817,62.176,172.032,66.854,174.171,68.221z"/>
		<path fill="#FFFCF2" d="M172.447,82.913c0.161-0.983,0.863-0.482,0.863,0c2.633-1.06-1.263-3.3,0.863-4.32
			c4.467,1.006,4.301,6.643,4.319,12.095C174.282,90.292,175.285,84.679,172.447,82.913z"/>
		<path fill="#FFFCF2" d="M135.288,104.513c2.758,1.714-5.372-0.273-4.321,2.591c1.978,3.375,5.259,0.068,9.507,0.864
			c-0.317,1.47,0.673,1.63,1.729,1.731C136.613,114.333,123.241,104.898,135.288,104.513z"/>
		<path fill="#FFFCF2" d="M156.026,107.104c-0.621,3.123-5.02,2.47-5.186,6.052C150.758,108.393,148.743,108.594,156.026,107.104z"
			/>
		<path fill="#FFFCF2" d="M193.18,148.581c-2.435-3.624,3.421-6.346,4.325-9.503C198.656,141.418,193.319,144.666,193.18,148.581z"
			/>
		<path fill="#FFFCF2" d="M141.334,114.882c2.719,0.124,2.97-2.214,3.459-4.323C148.793,113.034,139.896,117.695,141.334,114.882z"
			/>
		<path fill="#FFFCF2" d="M145.655,126.981c-2.858-2.087,3.714-1.979,2.593-5.185c-1.199-1.973-2.987,2.706-4.321,3.457
			c-1.667,1.019,3.001-5.294,4.321-6.911c1.599-0.818,0.53,4.945,1.731,1.726C151.272,121.7,147.418,125.528,145.655,126.981z"/>
		<path fill="#FFFCF2" d="M185.407,127.843c0.924-2.637-0.866,25.177-0.866,6.912C184.541,132.08,184.84,129.452,185.407,127.843z"
			/>
		<path fill="#FFFCF2" d="M202.685,131.299c-2.021,1.146-0.393,5.944-3.454,6.053C200.296,135.246,199.959,131.739,202.685,131.299z
			"/>
		<path fill="#FFFCF2" d="M327.98,144.261c3.725-1.91-1.699-4.438,0-9.503c3.309,4.09,3.413,9.089,4.318,13.826
			C330.815,150.562,329.754,144.852,327.98,144.261z"/>
		<path fill="#FFFCF2" d="M184.541,170.182c0.97,3.012-4.518,6.988-3.46,12.96c-1.713-0.009-1.097-2.356-3.456-1.725
			c0.146-2.449,1.583-3.601,1.729-6.05c2.56,1.256-1.141,3.372,0,6.05C181.316,177.904,182.403,173.518,184.541,170.182z"/>
		<path fill="#FFFCF2" d="M184.541,179.688c-2.735-2.232,0.866-5.415,0.866-7.773C187.593,173.604,183.46,176.247,184.541,179.688z"
			/>
		<path fill="#FFFCF2" d="M329.706,203.02c-0.731,2.85-1.53,4.481-2.589,8.643c-2.153-0.133-0.256-2.925,0-3.46
			c-2.203,0.106-3.355,1.258-3.46,3.46c-2.246-2.328-2.606,1.055-5.186,0.864c-8.155,16.903-18.784,31.333-30.242,44.933
			c-0.115,8.812-1.424,16.434-0.864,25.919c-3.895,3.597-8.508,6.469-12.098,10.37c-4.504-12.347,1.859-23.554,3.457-31.973
			c3.261-0.383,4.057,1.708,6.052,2.594c-0.401-2.479-1.002-4.763-3.459-5.182c0.543-2.103,4.364-0.461,3.459,1.726
			c3.362-3.146-2.434-4.43-2.596-6.911c2.713-0.412,2.281,2.322,4.322,2.593c1.286-4.455-2.063-4.278-2.594-6.914
			c2.944,1.695,3.371-0.816,0.867-1.727c0.772-2.333,3.503,0.401,2.59,2.593c2.555-1.514-0.498-4.603,0-6.912
			c2.997-0.405,0.496,4.687,2.594,5.182c1.532-1.317-0.702-6.161-2.594-6.915c1.464-2.236,4.353,1.342,3.456,4.322
			c3.225-2.36-1.553-6.889,0-7.774c2.624-0.316,1.796,2.818,2.592,4.318c2.734-1.873-3.172-5.271-0.866-6.911
			c2.263,0.908,2.827,3.51,2.593,6.911c1.521-1.018,1.604-7.88-0.864-7.775c0.352-2.151,3.354-0.053,2.594,1.729
			c4.217-1.188-1.403-3.562,0.863-5.183c1.066,0.377,1.779,1.1,1.729,2.589c0.686-4.216,0.65-1.912,4.321-4.32
			c-3.48-1.664,0.229-3.611,0.863-6.048c1.394-0.241,1.49,0.814,2.591,0.862c-1.762-0.455,1.223-10.564,4.321-5.181
			c3.633-1.141-0.004-2.837,0-5.181c0.575,1.675,5.626,0.59,2.59-0.869c0.853-2.649,2.307,0.989,3.459,0.869
			c0.624-2.644-0.883-3.154-0.865-5.19c1.902,2.284,4.047,1.72,3.456-2.593c2.305,5.024,1.234,0.004,4.322-2.588
			c2.891-2.433,8.263-0.613,7.773-4.322c1.516,1.863-1.149,4.256-0.865,6.047C329.59,206.017,329.789,204.374,329.706,203.02z"/>
		<path fill="#FFFCF2" d="M209.602,44.892c-2.152-0.129-0.252-2.924,0-3.456c-2.941,1.59-2.237,2.917-0.866,5.184
			c-5.112,0.646-2.274,9.248-6.051,11.233c2.179-3.623-1.874-3.856-0.861-8.642c1.277-1.003,2.175-1.003,3.454,0
			c-0.124-5.306,2.188-8.183,4.319-11.236C211.381,38.72,210.513,43.993,209.602,44.892z"/>
		<path fill="#FFFCF2" d="M174.171,91.552c0.865,0,1.729,0,2.596,0c-0.351,3.679,0.833,8.901-0.866,11.233
			C172.542,100.602,173.626,95.755,174.171,91.552z"/>
		<path fill="#FFFCF2" d="M187.999,174.504c-2.625,1.066,0.938,2.975,0,5.185c2.746-0.995,0.532-6.955,5.181-6.05
			c-0.483,3.288-2.371,5.686-0.862,8.644c-1.886-0.157-2.749,0.707-2.592,2.591c-2.999-1.605-4.602,0.414-7.778,0.865
			c-0.618-2.642,0.884-3.148,0.867-5.185c1.011,0.139,0.727,1.576,0.863,2.592c3.045-1.854,1.851-7.943,3.457-11.23
			c0.695,0.455,1.403,0.899,2.593,0.864c0.354,2.082-1.578,1.876-0.864,4.32C187.847,176.956,188.129,175.52,187.999,174.504z"/>
	</g>
</g>
<path fill="none" stroke="#FFFCF2" stroke-width="4" stroke-miterlimit="10" d="M167.839,3.894
	c91.036,0,164.834,73.799,164.834,164.836s-73.798,164.837-164.834,164.837c-91.038,0-164.837-73.801-164.837-164.837
	S76.801,3.894,167.839,3.894z"/>
<g id="yCM9TP_1_">
	<g>
		<path fill="#FFFCF2" d="M181.286,145.25c1.237-0.037,1.755,0.64,1.962,1.632C182.38,146.552,181.387,146.345,181.286,145.25z"/>
		<path fill="#FFFCF2" d="M250.914,186.113c0.214-0.922,0.381,0.751,0.328,0.979C251.09,187.748,250.628,187.354,250.914,186.113z"
			/>
		<path fill="#FFFCF2" d="M225.416,212.919c0.557-0.123,0.616,0.256,0.655,0.65c-0.282-0.055-0.308,0.13-0.327,0.331
			C225.359,213.843,225.471,213.301,225.416,212.919z"/>
		<path fill="#FFFCF2" d="M245.032,216.841c1.016,0.069,0.552,1.628,0.653,2.616C244.838,219.209,244.348,217.622,245.032,216.841z"
			/>
		<path fill="#FFFCF2" d="M204.496,227.954c0.759,0.093,0.751,0.872,0.327,1.308C204.376,229.161,204.552,228.44,204.496,227.954z"
			/>
		<path fill="#FFFCF2" d="M203.842,246.914c0.014,0.993-1.147,0.818-1.962,0.982C202.157,247.192,202.687,246.739,203.842,246.914z"
			/>
		<path fill="#FFFCF2" d="M229.667,320.141c-1.364-9.927-1.065-19.868-2.289-28.767c-0.172-1.234-0.837-2.396-0.982-3.598
			c-0.23-1.964,0.44-4.066-0.324-5.885c-1.592-3.778-3.606-7.422-5.56-11.769c-2.062-4.601-3.65-10.102-7.193-12.749
			c-1.005,4.165-2.523,8.485-7.188,8.173c-1.577-0.108-2.313-1.017-3.925-1.636c-3.759,3.649-5.476,9.346-10.459,11.77
			c-0.132-6.377,5.486-9.746,8.499-14.058c-2.415-3.468-2.78-10.808,0.65-13.402c-12.023-0.377-26.182-2.577-38.246,0.325
			c4.903-3.161,10.193-5.392,17.981-6.212c1.819-0.191,4.124-0.751,5.557-0.656c1.729,0.116,4.088,1.295,6.213,1.964
			c3.568,1.124,6.823,2.436,11.115,2.289c1.687-0.71,0.681-4.112,1.961-5.231c-3.679-2.633-7.135-5.693-10.789-8.827
			c-2.38-2.037-4.548-4.88-7.19-6.212c-2.878-1.446-6.259-1.698-9.152-3.268c-2.637-1.433-4.739-3.207-6.867-5.559
			c-1.342,0.256-1.673-0.502-2.94-0.326c0.733-0.263,2.459-0.263,3.596-1.638c8.463,0.146,11.509,5.713,18.634,7.191
			c0.924,0.604,1.362,1.691,2.941,1.639c0.68,2.478,2.77,3.549,5.887,3.597c1.131-1.928-0.555-2.635-2.291-4.905
			c-2.536-3.331-5.021-8.187-6.861-11.77c-3.151-6.129-5.229-11.615-6.212-18.633c7.596-0.295,10.873,6.267,14.06,11.441
			c1.019-0.723,1.061-2.428,1.631-3.598c-2.184-2.042-3.231-5.649,0.655-6.536c-0.688-2.473-1.432-4.887-2.613-6.863
			c-5.43,2.582-10.379-2.011-9.48-8.826c-5.372-1.662-11.33-4.547-16.018-7.845c-3.967-2.791-11.875-7.067-9.48-14.056
			c3.65,4.414,4.733,11.394,11.113,13.076c-0.241,0.583-0.594,0.045-0.979,0c-0.027,0.854,2.803,3.208,4.25,2.615
			c-0.353-0.277-3.61-1.055-2.944-2.29c5.406,1.13,10.101,2.977,14.385,5.234c1.428-1.603,0.96-6.719,0.328-8.828
			c-3.78,2.095-7.609-0.591-11.443,0c1.942-2.963,3.564-6.241,7.52-7.191c-0.539-2.184-3.661-1.787-4.579-3.597
			c-3.017-0.748-5.258-3.838-7.516-5.884c-5.304-4.8-10.587-10.341-19.288-11.115c0.894-0.902-0.478-0.308-0.653-0.98
			c-2.499-0.337-4.87-0.796-7.192-1.307c4.799-0.982,9.423,1.036,13.076,2.288c2.078-1.409,4.365-2.61,7.192-3.27
			c-0.943-1.508-2.896-1.639-4.578-2.286c-2.867-1.104-6.455-2.647-9.153-4.579c-1.088-0.777-2.637-1.898-2.614-3.269
			c7.388-2.016,12.543,2.889,17.654,5.228c-2.139-4.966-6.507-14.521-1.636-19.613c4.786,1.859,6.283,7.011,9.479,10.462
			c-0.742-3.266-2.245-9.747,0.982-11.441c1.497,0.958,1.074,2.585,1.306,5.229c0.357,4.09,1.83,8.469,0.98,12.749
			c2.304,5.768,5.835,11.659,5.556,18.959c1.463-0.612,1.2-2.943,3.925-2.288c1.135,3.008,1.124,7.161,1.31,11.113
			c1.919-0.173,2.961-3.057,3.596-5.229c0.434-1.481,0.887-3.449,2.287-4.904c1.533-6.717,4.426-12.5,8.829-16.672
			c4.16-3.943,9.229-8.164,16.017-8.499c0.123,2.039-1.7,2.722-2.94,3.594c-3.847,2.699-8.712,4.813-12.098,8.5
			c-4.649,5.064-6.777,11.17-9.808,17.979c-2.461,1.568-3.459,4.602-5.228,6.865c1.746,1.956,2.956,4.453,4.575,6.536
			c3.026-0.622,6,1.027,7.519,2.945c2.409-4.711,3.783-9.727,6.211-14.057c2.549-4.544,5.262-7.634,8.501-10.789
			c0.242-0.234,0.138-0.349,0.327-0.653c0.333-0.54,0.754-0.452,0.651-0.326c0.315-0.385,0.023-0.591,0.33-0.981
			c0.605-0.778,1.672-1.298,2.615-2.287c-0.628,2.157-2.593,3.71-4.252,5.556c-4.189,4.667-9.14,12.467-11.113,19.287
			c-0.252,0.865-0.018,2.108-0.329,3.269c-0.317,1.185-1.229,2.223-1.308,3.27c-0.135,1.865,0.827,3.554,0.655,5.232
			c-0.311,3.009-2.04,3.876-3.927,6.211c0.241,2.309-0.627,3.513-1.304,4.903c0.468,0.84,0.544,2.07,1.304,2.617
			c0.754-0.666,0.122-2.718,0.328-3.926c3.929-1.411,9.737-0.938,14.713-1.305c0.729-0.336-0.427-1.503,0-2.617
			c2.26,1.009,3.746,2.791,5.56,4.25c1.156-2.002,0.775-5.545,1.96-7.518c3.646,3.09,1.964,8.379,2.943,13.404
			c0.698,3.598,4.552,6.411,4.577,9.806c2.286-2.07,2.713-6.006,5.56-7.52c1.16-0.508,0.195,1.111,0.979,0.982
			c1.109-1.449,0.066-3.11,0-4.904c-0.269-7.089,2.478-14.204,7.191-17.001c3.174,2.061,5.162,5.301,8.498,7.191
			c1.814-3.413,3.058-7.401,6.538-9.151c4.727,3.302,2.721,13.046,0.326,17.327c0.425,1.973,2.14,2.654,2.615,4.575
			c2.755-1.71,4.091-4.844,7.192-6.212c-0.258-3.43-2.591-6.062-3.597-9.15c-0.642-1.973-0.755-4.01-1.309-6.212
			c-1.56-6.211-4.851-12.115-1.308-17.979c2.29-0.003,2.438,2.138,4.249,2.615c-1.458-3.883-3.678-7.001-6.211-9.807
			c1.898-0.366,2.556,3.324,4.25,4.25c-1.581-3.241-2.165-5.877-4.577-7.846c-0.89,0.391,1.642,1.803,0.982,1.961
			c-2.702-1.132-1.196-1.541-2.94-3.598c8.963,4.071,14.692,13.655,17.322,25.173c0.35,1.53,0.015,3.665,0.325,5.885
			c0.161,1.12,0.773,2.13,0.983,3.269c0.602,3.248-0.019,6.879,1.634,9.808c1.87-1.69,5.719-8.057,3.923-12.097
			c-0.203-0.461-0.799-0.494-0.979-0.979c-0.18-0.47,0.205-1.179,0-1.635c-1.054-2.342-3.13-4.39-4.25-7.192
			c-1.074-2.686-1.521-5.858-2.617-8.827c-1.417-3.836-3.096-8.667-5.559-11.768c-0.77-0.968-2.344-1.275-2.289-2.616
			c2.262,0.573,3.451,2.219,5.231,3.269c-0.515-2.627-2.951-7.425-1.306-11.442c6.234,1.121,9.678,8.086,12.422,14.057
			c1.27,2.773,2.24,4.624,2.94,8.174c-0.078,1.012-0.908,1.27-1.305,1.96c1.89,1.532,0.835,7.546,3.595,9.152
			c1.233-1.163,2.435-2.359,2.614-4.577c3.886-5.157,9.032-9.056,17.326-9.806c-3.551,5.706-9.57,8.95-16.344,11.441
			c-3.499,3.148-5.362,7.932-6.863,13.077c1.044,0.547,2.729-0.635,3.923-0.983c0.827-0.796-0.691-0.694-0.326-1.959
			c7.796-5.813,20.475-11.405,33.669-12.096c3.188-0.166,6.08-0.099,8.173,1.309c-1.471,1.801-4.612,1.928-6.54,3.271
			c-0.432,0.982-0.09,1.139-0.324,2.614c-0.773-0.007-0.963,0.563-1.965,0.328c-7.91,5.115-17.627,9.368-26.152,14.058
			c-2.292,1.26-4.78,2.684-8.823,2.288c1.418,5.091-3.263,9.709-2.615,14.385c0.208,1.506,1.05,2.244,1.958,3.594
			c10.593-5.32,17.645,17.143,6.866,17.981c-1.701,0.132-2.452-0.607-4.25-0.98c-0.598,3.783-0.502,7.716-2.616,10.785
			c-1.656,2.405-5.864,5.296-8.823,4.577c-2.832-0.684-5.869-8.166-4.579-13.075c-2.546-0.395-5.254-0.628-6.536-2.287
			c-2.399,5.117-4.344,10.694-6.54,16.018c5.25,6.303,9.452,13.655,11.445,23.21c-0.478,0.508-1.675,0.287-2.618,0.326
			c1.697,4.604,8.393,10.23,6.215,17.656c-6.397,1.88-10.099-3.781-13.405-7.848c-3.11-3.823-7.534-9.936-9.152-14.708
			c-1.696,1.811-2.669,4.194-3.923,6.534c-1.016,1.903-2.078,4.782-3.598,6.865c-2.005,2.756-5.069,5.005-7.192,7.521
			c-4.631,5.481-8.639,12.192-6.212,22.555c0.91-0.736,1.048-3.952,2.615-2.945c1.789,1.181-0.346,2.862-0.65,3.924
			c-1.937,6.722,0.343,16.397,0.979,24.191 M230.648,410.366c0.079-0.355,0.651-0.219,0.652-0.655 M283.605,202.457
			c2.571-0.792,2.46-3.28,1.31-5.559C283.565,197.87,282.246,200.752,283.605,202.457z M184.229,156.038
			c-0.148-2.098-0.784-5.23,0-7.192c-1.067-1.438-3.184-1.829-4.25-3.268c-4.159,2.603-9.159-2.639-12.423-2.941
			C173.324,146.891,178.671,151.57,184.229,156.038z M284.589,172.381c0.7-2.35,2.361-4.576,2.613-7.19
			c0.494-5.116-2.608-9.913-3.924-13.728c-1.958-0.228-2.928-3.169-4.576-2.617C282.835,154.519,282.024,165.135,284.589,172.381z
			 M186.516,154.4c-0.159-0.385-0.351-0.74-0.654-0.98C185.812,153.859,186.375,155.224,186.516,154.4z M185.538,156.365
			C187.697,156.93,182.892,155.528,185.538,156.365L185.538,156.365z M179.651,172.708c-1.093,0-1.116-1.062-2.287-0.979
			C177.454,172.531,179.315,173.232,179.651,172.708z M281.971,182.843c5.159-2.575,9.433-6.04,12.422-10.789
			C286.935,172.112,282.384,176.822,281.971,182.843z M277.724,186.766c1.131-1.613,0.88-5.918-0.655-6.863
			C277.468,182.005,277.11,184.871,277.724,186.766z M202.534,193.302c4.148-0.742,7.309-1.819,8.825,1.963
			c2.748,0.343,3.996,3.8,6.536,3.27c-0.176-2.327-2.247-2.765-2.288-5.232c0.577-0.949,1.505-1.543,3.271-1.308
			c0.827-2.581-0.6-4.828-2.288-5.883c-5.036,1.624-10.216-0.426-15.042-0.981C201.295,188.443,201.744,191.041,202.534,193.302z
			 M253.532,200.823c0.85,0.129,0.986,0.975,1.96,0.979c1.257-2.228,2.38-4.591,3.926-6.536c-0.618-1.344-1.023-2.898-2.617-3.269
			C255.764,194.989,253.973,197.233,253.532,200.823z M271.511,192.978c-0.42,2.074-0.768,4.205-1.633,6.212
			c-0.666,1.536-3.135,3.606-0.984,4.904c2.617-3.011,3.979-5.995,4.256-10.79c-0.943-0.038-0.572-1.393-1.639-1.307
			C271.511,192.323,271.511,192.649,271.511,192.978z M279.029,198.862c1.189,0.337,2.023,1.027,3.271,1.307
			c0.925-2.02,2.854-4.77,1.96-7.518C282.807,195.011,280.403,196.422,279.029,198.862z M239.146,198.534
			c-2.537,1.166-3.642,3.771-5.231,5.887c2.711,3.172,4.559,7.207,7.846,9.807c0.611-0.262,1.196-0.545,1.961-0.658
			C242.203,208.554,240.158,204.063,239.146,198.534z M226.725,208.341c1.802-0.05,1.536-2.166,2.29-3.27
			c-0.63-0.461-1.315-0.863-2.29-0.981C226.352,205.821,226.578,206.515,226.725,208.341z M249.606,211.937
			c2.328-1.268,3.165-4.026,3.926-6.863c-0.957,0.086-1.007-0.74-1.962-0.652C250.677,206.506,249.152,209.577,249.606,211.937z
			 M264.971,208.015c1.282,1.813-0.414,3.727,1.311,5.231c-0.783-3.872,2.057-5.737,1.306-8.499
			c-0.071-0.258-0.273-0.38-0.651-0.326C266.399,205.735,265.51,206.698,264.971,208.015z M209.726,212.265
			c0.107,1.476,0.764,3.9,1.638,4.577c0.122-4.015,1.198-7.082,1.96-10.46c-0.982-0.324-1.459-1.158-2.943-0.98
			C210.355,207.511,209.568,210.007,209.726,212.265z M231.628,206.378c-0.969,1.321-2.059,2.519-2.613,4.253
			c2.735,1.949,4.577,4.792,7.843,6.211c1.02-0.941,2.631-1.292,3.271-2.614C237.321,211.589,234.768,208.69,231.628,206.378z
			 M263.337,209.647c-3.753,4.855-7.146,10.072-13.076,12.751c-0.505,1.345-1.764,1.938-1.96,3.597
			c4.728-0.273,6.604,3.995,10.789,5.23c1.652-7.076,7.028-12.123,5.229-21.576C263.991,209.647,263.667,209.647,263.337,209.647z
			 M220.515,213.896c1.023,0.193,3.038,1.088,3.923,0.328c-0.386-1.902-0.585-3.992-2.94-3.923
			C221.643,211.976,220.714,212.576,220.515,213.896z M226.725,215.205c1.806,1.247,2.804,3.296,4.903,4.252
			c1.363-0.492,2.778-0.929,3.597-1.965c-2.249-1.562-4.595-3.028-7.846-3.597C227.206,214.38,226.894,214.722,226.725,215.205z
			 M248.301,215.205c-0.437,0.546-1.454,0.509-1.966,0.982c-0.354,3.729,0.987,5.77,0.983,9.148
			c1.379-0.144,1.367-1.682,1.638-2.939c-0.244-0.958-1.767-0.633-1.638-1.962C247.813,219.221,249.494,215.958,248.301,215.205z
			 M206.131,227.301c0.513,4.715,1.177,9.285,3.595,12.094c-0.9-1.586,1.89-1.058,1.312-3.269
			c-6.397-4.148,1.977-13.396-1.966-18.634C208.477,221.146,208.072,224.993,206.131,227.301z M233.264,220.762
			c-0.105,1.42,1.586,2.518,2.615,3.925c1.8,2.458,3.032,3.629,5.558,5.232c1.354,0.856,2.793,2.558,4.576,1.307
			c-0.444-5.653-7.201-5.002-9.477-8.823c3.581-1.284,6.208,0.89,8.5,1.96c0.226-1.646-0.557-2.279-0.327-3.924
			C240.788,217.577,237.741,220.161,233.264,220.762z M219.206,233.187c1.021-2.252,3.182-3.359,2.617-7.191
			c-0.769-0.325-1.608-0.574-2.617-0.655C219.332,227.866,219.028,231.692,219.206,233.187z M198.287,232.857
			c4.308,0.765,4.651,8.409,9.478,6.537c-0.956-2.417-2.279-4.477-2.941-7.191c-3.357-2.419-6.121-5.429-11.77-5.558
			C193.263,228.982,196.82,230.698,198.287,232.857z M241.435,232.531c-2.08-0.438-3.036-2.52-4.9-3.599
			c-3.159-1.812-7.392-1.374-11.771-2.287c-0.328,0-0.389,0.267-0.656,0.327c0,0.217,0,0.438,0,0.654
			c0.204,1.803,0.913,4.952,0.656,7.845c-0.385,4.347-3.254,8.308-3.271,12.099c-0.007,1.911,1.248,4.769,1.962,7.188
			c0.687,2.328,1.677,4.669,2.289,6.865c0.676,2.424,0.883,5.183,1.634,7.518c0.851,2.641,1.877,4.79,2.289,7.191
			c0.21,1.217-0.531,2.447,0.655,3.596c0.362-1.383,1.615-1.869,1.633-3.596c2.478-2.973,5.427-5.473,7.191-9.153
			c1.28,0.078,1.916-1.461,2.615-2.287c3.29-3.893,4.863-9.131,4.907-16.021c0.03-5.751-0.357-11.768-0.983-16.345
			C244.202,232.039,243.005,232.319,241.435,232.531z M247.974,238.744c1.712,0.464,2.875,1.484,3.926,2.615
			c-1.243-4.097-3.637-7.043-3.599-12.427c-0.069-0.365-0.362-0.507-0.654-0.654C247.375,230.208,247.729,235.362,247.974,238.744z
			 M212.668,247.896c1.394-0.679,1.785-2.355,1.962-4.251c-1.854-0.979-2.129-3.539-3.598-4.901
			C209.91,242.63,211.858,244.995,212.668,247.896z M248.301,255.414c0.352-2.523,2.86-4.147,2.941-6.864
			c0.039-1.326-1.039-3.043-1.308-4.578c-0.303-1.738,0.392-3.523-0.979-4.577c-0.328,0-0.655,0-0.982,0
			C248.378,244.636,248.137,250.83,248.301,255.414z M209.399,244.3c-0.315-0.259,0.383,0.406,0-0.654
			c-0.487-1.354-2.082-2.199-3.596-2.286c-0.716,1.134-0.865,2.838-0.98,4.574c0.204,0.452,1.258,0.049,1.308,0.655
			c-0.745-0.093-1.229,0.078-1.308,0.652c5.271,0.723,7.553,4.436,8.172,9.809c0.438,0,0.872,0,1.308,0
			c-0.523-1.816-1.649-5.425-2.616-6.539c-0.571-0.658-1.338-1.869-1.307-2.614c0.012-0.374,0.704-0.367,0.652-0.655
			c-0.011-0.075-1.253-0.179-0.979-0.652c0.326-0.002,0.387,0.265,0.656,0.325C210.19,246.104,210.297,245.026,209.399,244.3z
			 M216.266,243.646c-4.918,4.714,0.085,10.502,0.981,14.058c1.735-4.908-0.135-9.556-0.33-14.71
			c-0.416-0.021-0.45-0.421-0.979-0.327C215.986,243.048,215.882,243.591,216.266,243.646z M218.228,260.318
			c0.337,1.842,1.777,2.854,2.615,4.577c1.548,3.188,2.175,7.083,4.247,9.48c-0.54-8.721-3.691-14.834-5.231-22.557
			c-0.416-0.018-0.451-0.418-0.979-0.326C218.366,253.626,217.854,258.302,218.228,260.318z"/>
	</g>
</g>
<circle display="none" fill="none" stroke="#FFFCF2" stroke-width="4" stroke-miterlimit="10" cx="157.697" cy="168.983" r="147.426"/>
<g id="p71Rmu_1_" display="none">
	<g display="inline">
		<path fill="#FFFCF2" d="M229.491,320.601c0.049-0.791-0.135-0.693,0-1.815c1.014-0.928,1.966-0.568,2.594-2.076
			c0.817,0.329,2.474,0.838,2.075,1.557c1.602-1.967,1.771-5.438,1.817-8.304c0.064-4.1-0.366-9.437-2.336-13.233
			c0.468-2.625-0.801-5.073-3.112-5.71c-0.251-1.83,2.486-0.879,3.112-0.52c1.465-3.409,0.315-9.178-3.112-10.64
			c-0.675,1.404-2.419,3.115-3.114,3.633c-2.317,0.476-6.068-0.168-8.564-1.297c-0.564-0.256-0.729-0.517-0.52-0.52
			c-2.798,0.021-8.767-2.54-10.639-4.669c-0.238-0.269-1.968-1.086-2.855-1.818c1.246,0.911-0.965,0.331,0-0.519
			c-1.156,0.69-3.336-3.311-4.67-3.892c-0.48-0.039-0.16-0.878-0.521-1.037c-1.582-1.271-2.22-3.487-3.892-4.673
			c-0.793-1.67-1.732-3.19-2.854-4.408c-2.214-2.407-5.635-3.895-5.449-7.785c2.382-0.097,4.396,1.439,4.929,2.335
			c2.667,1.71,5.233,2.23,9.343,3.374c11.989,3.334,22.491,7.394,29.323,16.086c-0.035,1.004,0.202,2.282-0.518,2.597
			c0.768,1.961,3.607,1.851,3.372,3.374c2.638-5.078,6.728-20.366,1.038-26.729c-0.591,0.187-1.327,0.23-1.817,0.52
			c-9.219-0.425-15.729-7.755-18.425-15.571c-1.468-4.264-3.136-10.325-2.854-14.273c0.22-3.067,0.88,0.97,0.15-2.004
			c-3.187-0.134,1.131-16.304-2.092-16.982c1.117-2.614,4.351,6.104,7.912,7.569c1.13,0.465,2.656,1.801,4.412,2.593
			c0.688,0.312,1.307,0.235,1.815,0.519c2.219,1.231,5.735,3.613,6.748,5.45c1.421,10.048,11.842,20.003,5.449,30.623
			c0.642,1.262,1.789,2.016,2.334,3.37c0.518-0.699-0.436-2.146-1.297-2.333c1.706-1.246,2.625,1.626,2.853,2.854
			c0.429,2.271-0.272,5.674-0.518,8.821c-0.204,2.624,0.447,4.743-0.521,6.231c1.896-1.971,4.604-4.458,6.75-5.971
			c-0.829-9.956,5.426-15.229,10.12-19.204c4.768-2.765,10.037-6.053,17.128-7.267c3.627-0.619,8.47-1.436,11.934-2.592
			c2.146-0.717,4.126-2.193,7.01-1.817c-1.597,3.351-4.986,4.428-7.266,7.267c-2.938,3.653-4.591,8.377-7.527,11.937
			c-2.248,2.721-5.396,4.628-7.526,7.267c-1.094,0.09-3.353,1.104-3.891,2.595c-0.752-0.498-1.731,0.569-2.855,0.517
			c0.009,0.255,0.318,0.204,0.52,0.261c-4.664,2.024-10.286,3.588-15.571,2.336c-3.012,1.746-5.187,4.33-8.043,6.229
			c-1.4,4.027-2.615,8.805-3.374,12.715c0.232,0.546,0.402,1.152,0.778,1.555c-1.905,6.787-0.234,13.521,1.814,20.502
			c-0.271,4.033-1.159,6.728-1.038,10.64"/>
	</g>
</g>
</svg>
