<?xml version="1.0" encoding="utf-8"?>
<!-- Generator: Adobe Illustrator 15.0.0, SVG Export Plug-In . SVG Version: 6.00 Build 0)  -->
<!DOCTYPE svg PUBLIC "-//W3C//DTD SVG 1.1//EN" "http://www.w3.org/Graphics/SVG/1.1/DTD/svg11.dtd">
<svg version="1.1" id="Calque_1" xmlns="http://www.w3.org/2000/svg" xmlns:xlink="http://www.w3.org/1999/xlink" x="0px" y="0px"
	 width="340px" height="340px" viewBox="0 0 340 340" enable-background="new 0 0 340 340" xml:space="preserve">
<g id="lWW0Qj_1_">
	<g>
		<path fill="#FFFCF2" d="M240.366,26.892c4.009,1.376-2.097,6.024-0.846,10.156C236.996,34.196,240.74,30.408,240.366,26.892z"/>
		<path fill="#FFFCF2" d="M227.67,42.126c2.737-1.042,0.642,2.742,3.385,1.694c0.369,2.912-0.334,4.744-0.85,6.772
			c-2.423-0.114,0.731-5.81-1.691-5.926c-1.946,2.002-0.303,7.598-0.844,11.005C224.011,53.921,226.214,44.316,227.67,42.126z"/>
		<path fill="#FFFCF2" d="M230.205,53.982c0.85,0,1.694,0,2.54,0c0.802,2.896,2.654,5.244,0.85,8.466
			c-2.295-0.809,0.798-7.008-2.54-6.773c-0.991,0.135-0.715,1.544-0.85,2.54C228.223,57.996,229.721,54.495,230.205,53.982z"/>
		<path fill="#FFFCF2" d="M168.409,54.828c1.66,1.162,0.456,5.185,1.693,6.772C168.05,60.814,167.184,56.301,168.409,54.828z"/>
		<path fill="#FFFCF2" d="M189.572,55.673c1.334,1.769,1.754,4.455,1.691,7.623C187.832,63.621,190.335,58.017,189.572,55.673z"/>
		<path fill="#FFFCF2" d="M292.854,62.446c2.94-0.398,0.487,4.59,2.54,5.079c0.157,0.721-0.325,0.8-0.847,0.85
			c-0.719-0.155-0.796,0.327-0.846,0.845C292.511,67.787,294.121,65.281,292.854,62.446z"/>
		<path fill="#FFFCF2" d="M181.106,68.375c2.019,3.183-2.423,7.141-1.691,11.85C177.26,76.906,180.497,71.742,181.106,68.375z"/>
		<path fill="#FFFCF2" d="M247.141,68.375c1.771,3.209-2.85,7.283-2.541,11.85C242.305,76.49,246.082,71.566,247.141,68.375z"/>
		<path fill="#FFFCF2" d="M225.126,74.298c2.62-2.01,3.339,5.099,3.388,8.468C226.117,80.995,226.146,77.453,225.126,74.298z"/>
		<path fill="#FFFCF2" d="M273.384,75.148c1.983,1.225-0.533,5.037-0.847,6.772C270.241,80.383,273.007,76.811,273.384,75.148z"/>
		<path fill="#FFFCF2" d="M269.152,81.071c-0.408-2.662,1.205-3.31,1.689-5.077C272.519,76.651,271.305,81.45,269.152,81.071z"/>
		<path fill="#FFFCF2" d="M154.014,77.686c1.249-0.364,1.081,7.921,1.693,11.008c1.856-2.185,0.756-8.623,0-11.008
			c2.458,2.083,2.632,10.887,1.694,13.546C153.361,89.627,154.339,83.008,154.014,77.686z"/>
		<path fill="#FFFCF2" d="M151.474,80.226c2.272,1.117,1.409,5.368,2.54,7.619C151.478,86.993,152.344,82.744,151.474,80.226z"/>
		<path fill="#FFFCF2" d="M177.72,83.609c1.854,1.819,2.676,4.667,2.54,8.469C176.59,90.187,178.97,87.357,177.72,83.609z"/>
		<path fill="#FFFCF2" d="M225.126,93.771c4.183,0.721-1.481,4.171-0.844,6.771C221.589,98.611,225.376,96.061,225.126,93.771z"/>
		<path fill="#FFFCF2" d="M303.015,103.087c-2.651-2.71,1.816-5.48,0.849-9.314C305.974,95.936,304.359,101.563,303.015,103.087z"/>
		<path fill="#FFFCF2" d="M143.01,100.544c-0.405-2.848,4.315-1.232,3.387,3.387c-2.915-0.027-5.578-6.008-7.621-1.69
			c-3.132-2.116,3.219-1.782,1.694-5.083C143.457,98.012,142.019,98.62,143.01,100.544z"/>
		<path fill="#FFFCF2" d="M320.793,109.855c3.152,0.641,0.464,4.753,0,6.773C319.046,115.901,319.898,110.737,320.793,109.855z"/>
		<path fill="#FFFCF2" d="M263.229,114.09c0.098,4.629-8.475,7.889-12.702,11.008C253.612,120.279,259.581,118.348,263.229,114.09z"
			/>
		<path fill="#FFFCF2" d="M147.24,123.402c-1.951,0.259-0.936-2.445-2.54-2.538c1.755-2.763,5.17-3.861,7.621-5.928
			c-0.383,3.566-4.136,3.763-5.923,5.928c0.26,1.145,2.119,0.702,3.383,0.848C149.588,122.93,147.255,122.002,147.24,123.402z"/>
		<path fill="#FFFCF2" d="M160.789,117.476c0.148,2.971-2.86,2.782-3.387,5.078C155.086,120.73,157.563,116.568,160.789,117.476z"/>
		<path fill="#FFFCF2" d="M260.689,121.711c1.625-1.417,3.972-4.915,5.923-3.388C264.982,119.739,262.636,123.233,260.689,121.711z"
			/>
		<path fill="#FFFCF2" d="M231.903,120.013c2.838,2.351-2.193,3.962-2.54,5.931C227.018,124.082,232.044,122.472,231.903,120.013z"
			/>
		<path fill="#FFFCF2" d="M325.877,124.25c-1.8,3.011-3.991,1.779-5.08,4.233C318.257,126.164,322.243,123.206,325.877,124.25z"/>
		<path fill="#FFFCF2" d="M242.061,127.634c1.569-2.054,0.574,5.582,0.847,7.621C241.34,137.313,242.335,129.673,242.061,127.634z"
			/>
		<path fill="#FFFCF2" d="M194.651,131.02c3.46,1.393-2.503,15.795-0.848,2.541C194.795,133.425,194.523,132.018,194.651,131.02z"/>
		<path fill="#FFFCF2" d="M220.898,147.955c-3.225-3.671-1.618-15.074-0.85-5.083C220.206,144.866,221.193,144.466,220.898,147.955z
			"/>
		<path fill="#FFFCF2" d="M248.832,152.187c0,1.131,0,2.258,0,3.389c-1.58,0.675-3.1,1.414-5.076,1.692
			C243.988,154.112,246.604,153.342,248.832,152.187z"/>
		<path fill="#FFFCF2" d="M245.447,164.887c1.191-2.196,1.175-5.601,2.54-7.619C248.983,158.314,248.059,164.635,245.447,164.887z"
			/>
		<path fill="#FFFCF2" d="M242.061,159.806c2.498-0.579,0.268,7.177-1.688,7.619C240.103,164.059,242.322,163.172,242.061,159.806z"
			/>
		<path fill="#FFFCF2" d="M242.907,166.577c0.132-2.69,1.923-3.725,1.692-6.771C246.379,161.097,245.399,166.754,242.907,166.577z"
			/>
		<path fill="#FFFCF2" d="M249.679,172.504c-2.739,1.046-0.646-2.739-3.384-1.694c-0.347-2.039,1.546-1.839,0.846-4.231
			c1.868,0.379,2.119,4.418,3.387,0.848C253.272,168.893,248.326,169.643,249.679,172.504z"/>
		<path fill="#FFFCF2" d="M196.344,175.891c3.791-0.064-0.516,3.138,0.85,5.928C193.893,180.964,197.062,178.907,196.344,175.891z"
			/>
		<path fill="#FFFCF2" d="M330.109,177.584c-0.688,4.723,1.889,7.489,0,11.003c0.787-0.616,1.28-1.535,1.69-2.537
			c2.466,1.188-1.5,2.916-0.846,5.08c-0.792-0.48-1.286-2.355-1.694-0.847C330.931,187.35,326.498,180.64,330.109,177.584z"/>
		<path fill="#FFFCF2" d="M292.011,181.818c3.269-0.501,1.231,5.573-0.849,5.075C291.146,184.903,292.621,184.404,292.011,181.818z"
			/>
		<path fill="#FFFCF2" d="M280.158,183.512c1.931,1.172,0.317,5.893,0.847,8.467c-3.215-0.174-2.931-3.845-4.231-5.929
			c0.821-0.021,0.655-1.034,0.848-1.692c1.365-0.238,1.456,0.8,2.54,0.85C280.158,184.639,280.158,184.077,280.158,183.512z"/>
		<path fill="#FFFCF2" d="M320.793,193.668c2.259,1.24-0.354,4.651-2.541,4.234C317.854,195.246,320.533,195.666,320.793,193.668z"
			/>
		<path fill="#FFFCF2" d="M330.109,207.217c2.125,1.365-1.505,4.071-1.696,5.927C326.288,211.773,329.918,209.067,330.109,207.217z"
			/>
		<path fill="#FFFCF2" d="M336.034,165.732c-9.867-0.888-18.889,10.873-12.697,17.779c-0.693-5.051,0.076-6.137,1.691-10.157
			c2.238,0.302,0.769,4.311,2.54,5.08c0.515-3.042,0.545-6.563,0.845-7.625c2.099,2.137,0.682,7.789,4.233,8.467
			c1.214-4.349-3.46-7.213-0.847-10.158c0.862,2.312,1.171,9.12,3.386,5.082c1.754,7.97-2.35,14.564-2.539,17.777
			c1.173-0.521,0.128-3.259,1.694-3.392c0.957,7.98-5.513,14.809-11.853,10.164c-0.143,1.268,0.304,3.125-0.847,3.385
			c-0.35-1.063-1.092-1.728-2.54-1.691c-0.194,1.5,0.853,4.24-1.694,3.387c-0.696-2.394,1.193-2.193,0.85-4.231
			c-4.216-0.826-0.541,6.232-4.234,5.928c-0.318-3.494,3.643-6.655,0-8.468c1.493-2.179,3.686-3.657,5.08-5.928
			c-3.136-0.966-4.907-0.081-6.773-0.847c0.238,1.93-0.203,3.183-1.693,3.386c-5.508,1.261-7.682,5.86-11.004,9.312
			c-6.799,2.877-16.522,3.845-21.165,11.008c-1.919,2.957-1.809,8.438-3.388,12.699c-3.893,10.523-9.986,15.67-6.77,28.782
			c10.498,11.192-6.803,26.337,3.383,40.638c-4.727-0.825-6.882,6.853-12.694,7.621c0.124-1,1.504-1.919,0-2.544
			c-0.769,1.494-3.117,1.401-3.39,3.388c1.455,0.335,2.17-1.255,2.54,0c-7.319,1.938-15.182,10.645-22.011,7.621
			c-2.388,0.151-1.056,4.023-4.234,3.388c6.502-8.21,17.728-13.181,16.084-27.095c2.898-1.902,3.52-6.075,7.621-6.771
			c0.536,2.853-1.089,7.861,0.849,9.312c0.985-5.956,2.61-11.897-1.693-15.238c-0.264,1.507-4.477,3.314-1.691,5.081
			c-0.26-1.029,2.447-2.919,2.54-0.847c-3.397,0.834-4.863,3.6-6.773,5.927c-0.898-5.807,6.952-9.85,7.621-12.701
			c-0.261,1.115-6.847,3.39-7.621,6.774c-2.791-7.23,0.782-15.587-3.388-21.165c10.289-10.042-1.608-21.544-3.387-33.868
			c-12.635-1.473-20.987-11.74-22.011-22.014c3.042,5.429,9.537,7.399,11.85,13.548c10.356,0.136,18.425,3.078,18.629,13.546
			c1.736-3.338-0.081-10.235,2.536-12.694c-2.289-7.6-10.838-7.413-14.389-11.854c1.321-6.128-0.24-2.864-1.691-6.771
			c3.681,1.11,8.687,0.902,12.694,1.689c-3.895-15.057,5.016-26.454,5.081-37.25c-0.956,2.483-2.432-1.398-3.387-1.691
			c0.972-11.914-0.614-1.661-2.54,0.848c1.065-5.197,1.648-12.237-1.691-15.239c-2.542,0-5.081,0-7.617,0
			c-1.357,4.291-2.634,8.656-5.081,11.852c-3.282-4.108-4.104-8.623-5.928-11.004c-2.586,0.863-1.72,10.128-4.233,5.924
			c-1.764,3.278,1.265,1.383,0.848,5.08c2.392,1.138,2.123-4.487,3.387-1.691c-1.356,1.463-0.408,5.231-2.539,5.924
			c-0.316-5.13-2.646-4.011-5.077-5.924c2.105,7.805,6.725,18.766,0.846,22.854c2.12,1.119,2.652-3.345,3.386-0.847
			c-0.272,2.04-6.148,2.804-3.386,5.08c0.269-0.978,2.618-3.986,3.386-1.691c-2.175,0.465-6.551,6.467-5.078,5.081
			c2.587-0.802,2.652-4.121,5.927-4.231c-0.612,6.821,1.843,10.574,3.387,15.237c3.232,0.757,5.402-1.383,6.773,0
			c-0.188,1.587-2.183,5.61,0,6.771c0.116-1.575,0.557-2.831,1.691-3.388c-0.997,2.245,1.62,4.987,0,5.081
			c-11.868,1.795-18.776-5.184-21.165-13.549c-0.367-1.271,0.95-2.881,0.848-4.229c-1.015-12.995-17.437-15.255-28.784-17.778
			c0.659-4.408,1.752-10.375-0.85-13.547c0.021,8.27,0.575,9.95-4.231,15.241c-1.487-2.183-1.225-6.119-3.39-7.622
			c-0.906,2.195-2.053,4.149-1.689,7.622c-4.349-3.522-2.038,5.472-5.08,5.923c-4.722-2.759-6.392-0.945-11.004-1.691
			c-0.749,8.015-7.357,3.143-13.548,3.389c0-1.412,0-2.825,0-4.233c-3.376-0.468-2.549-0.468-5.925,0c0.247-0.52,2.109-3.26,0-3.387
			c-0.249,0.753-2.289,3.706-2.541,1.691c7.482-4.054,2.334-7.676,4.234-16.085c2.202,1.7,5.521,1.371,4.231-0.847
			c-0.183,0.662-0.706,0.983-1.692,0.847c-1.27-9.387,2.398-5.344,1.692-4.232c0.94-1.481-2.188-3.869,1.693-5.081
			c-0.076,3.163-0.949,2.413,0,5.081c4.174-2.172,4.74-7.156,5.081-10.159c-0.904,0.789-0.263,3.125-2.538,2.54
			c2.462-4.59,7.959-6.148,9.312-11.85c-1.489-0.771-1.549-2.966-2.541-4.234c-3.672-1.177-5.861,1.398-7.621-1.69
			c1.845-1.593,2.349-3.92,2.541-5.081c8.502,0.602,10.523-5.282,11.006-12.697c-3.036-1.638-3.102,0.323-5.925,0.848
			c0.945-7.46-5.812-5.852-10.159-4.233c-1.317,3.009,2.874,0.509,2.538,2.537c-3.655-0.01-5.578-1.755-8.463-2.537
			c3.991-0.858,5.308,0.847,7.617-1.695c-0.996-0.131-2.402,0.144-2.541-0.845c3.77,0.664,5.081-1.129,8.467-0.848
			c1.966,3.118,6.259,3.899,9.311,5.925c1.089-3.908-3.314-2.324-4.234-4.232c0.849,0,1.693,0,2.541,0
			c-2.745-7.447-8.562,0.583-11.004-7.617c6.166-0.154,7.117,2.497,11.853,5.079c-1.037-4.046-4.04-6.12-6.771-8.466
			c-3.826,2.313-4.943-1.36-8.468-1.693c-0.463,1.229,0.992,4.377-0.844,4.233c-0.877-3.556-3.358-0.594-4.234-3.388
			c3.809-0.894,7.364-1.876,8.466-4.232c0.745,1.498,2.683,2.472,0.847,4.232c6.872-0.943,7.719,4.134,11.854,5.926
			c0.601-2.5,0.232-5.977,2.541-6.772c0.811,2.854-2.596,5.785,0,7.619c0.753-1.784,2.579-2.501,2.541-5.081
			c-1.309-0.202-3.027-4.178-0.849-5.079c0.191,1.502-0.854,4.24,1.69,3.388c-1.342-5.346-3.425-6.987-6.771-8.463
			c0.032-3.079-0.474-6.687,1.691-7.623c-0.17,4.753,1.419,0.928,3.39,0.849c0.134,3.215,0.027,5.367-1.692,2.54
			c5.858,7.062,1.413,16.807,4.23,24.549c0.225-4.573-1.052-10.645,2.542-11.85c-1.967,2.833-1.796,7.798-1.693,12.7
			c1.332,2.394,4.531-1.911,5.926,0.848c-2.045,2.443-1.073,11.553-4.23,10.158c0.523,2.299-1.076,6.722,0.845,7.621
			c2.258-5.37,1.863-16.93,5.926-17.779c-2.625-2.209-2.625-13.031,0-15.237c3.858,0.657,2.604,6.422,4.234,9.311
			c0.36-3.742,5.79-6.519,5.079-8.469c-2.176,0.083-1.211,3.307-3.387,3.386c0.388-4.771-2.378-4.499-5.08-7.616
			c-0.226-3.333,0.327-5.884,2.54-6.773c1.815,1.856,1.527,5.831,4.234,2.54c0.231,1.486-2.385,4.222,0,5.079
			c0.313-2.663,1.977-5.6,3.387-2.541c1.311-3.858,3.391-7.246,1.689-10.159c-0.95,1.092-2.077,6.299-3.385,4.235
			c1.706-3.375,2.022-12.333,0-12.7c0.438,6.224-6.59,1.91-6.772,0c-1.554,3.243-1.898,7.692-3.388,11.005
			c0.498-4.584,0.429-9.731,3.388-11.849c1.081,1.174,3.995,0.513,5.081,1.69c1.483-6.141,6.723-13.019,5.076-19.472
			c-1.751,1.354-1.041,5.166-2.536,6.771c-2.56-3.378-7.954-8.396-5.081-14.39c-0.269,3.376-0.046,6.253,1.691,7.619
			c2.72,0.745,1.162-2.788,3.39-2.541c-0.666,0.588-1.885,4.725,0,5.081c0.718-2.382,2.735-3.474,2.536-6.771
			c-3.917,1.661-1.175-0.8-2.536-1.692c-3.527,0.622-0.269,2.777-3.39,3.385c-0.521-3.625,2.759-3.453,2.541-6.771
			c-3.335,0.514-3.75-1.896-4.232-4.233c4.71,0.477,2.736-5.729,6.772-5.926c-0.754,2.388-5.374,5.303-3.387,7.619
			c1.87-2.645,2.19-6.838,5.927-7.619c-6.366,9.05-1.705,2.479,2.54,0.848c-3.268,2.678,0.44,2.665,0,6.771
			c-1.096,1.728-4.105,1.54-3.389,5.079c0.735,2.499,1.268-1.961,3.389-0.846c-0.982,2.125-3.374,2.835-3.389,5.926
			c2.982-1.627,9.255-11.855,4.234-6.773c-0.14-2.958,0.225-5.417,1.688-6.771c1.854,3.47,1.314,10.083,1.693,12.698
			c1.489-3.588,3.778-6.38,5.081-10.158c-2.388-1.14-2.124,4.487-3.39,1.693c-0.467-0.432-0.427-5.324,0.85-8.467
			c-2.928-1.154-1.234,6.559-3.387,3.386c0.931-2.451,1.048-5.723,4.23-5.924c1.191,3.502-2.411,6.538,0,8.464
			c0.249-1.974,2.291-1.974,2.54,0c-3.363,10.047-8.812,20.468-9.312,28.786c0.954-1.094,2.079-6.299,3.388-4.233
			c-0.379,1.934-4.676,4.278-2.536,5.925c1.04-0.729,2.34-5.449,3.383-3.385c0.812,1.577-2.533,2.828,0,3.385
			c1.527-2.032,5.302,0.561,7.621-3.385c-4.643,2.983-7.728,11.063-6.774,16.93c-1.588,0.878-8.314,7.892-8.464,10.159
			c8.57-4.974,11.783-15.305,16.085-24.551c0.204,1.588,1.396-0.481,1.693,0.845c-4.767,4.384-9.284,18.274-4.234,23.706
			c0.044-9.477-0.233-23.918,11.008-22.856c-2.161,2.656-7.237,6.846-5.927,10.157c1.71-4.215,4.936-6.919,6.771-11.006
			c-2.475-1.604-4.627-10.825,0-11.852c-1.584-1.237-0.997-4.645-4.232-4.233c-2.737,3.898,3.34,9.968,0,14.395
			c-1.854-4.921-0.33-13.211-4.233-16.084c-2.843,2.605,0.878,7.534-2.539,8.463c0.515-2.013,1.143-4.867,0-6.773
			c0.728,1.729-1.329,4.669-1.692,2.542c1.348-3.733,2.66-7.498,5.929-9.311c-1.68,1.599-0.411,4,0,5.925
			c2.296,1.787,2.107-1.919,5.08,0c2.466,5.436,4.145,11.658,4.229,19.473c-5.197-0.792-6.796,8.117-10.156,11.854
			c4.877-2.46,5.079-9.595,11.005-11.009c3.655,1.424,2.272,7.886,4.231,11.009c2.375-4.12,3.03-9.953,2.539-16.935
			c-4.945,0-0.968,8.991-2.539,10.161c-1.345-3.111-2.05-11.958,2.539-11.85c3.586,5.148,0.893,12.281,1.692,16.93
			c-1.48-1.601,4.082-6.559,2.541-3.385c2.812-5.795,3.643-12.31,2.54-20.318c-3.6-0.268-4.855,8.124-1.692,9.311
			c0.465-1.229-0.99-4.376,0.848-4.233c-0.031,3.075,0.475,6.682-1.691,7.619c-3.108-3.691-1.723-12.207,1.691-14.389
			c6.572,2.596,0.752,13.993,2.539,18.622c0.221-2.094,1.961-6.991,3.387-5.076c-0.19,1.852-3.818,4.556-1.693,5.924
			c2.71-5.567,5.585-11.754,3.389-20.316c-0.827,0.865-1.674,1.712-2.538,2.54c-0.507-1.505,2.48-3.516,0-4.233
			c0.042,1.458-0.655,2.17-1.693,2.541c-0.523-2.299,1.072-6.721-0.85-7.621c-1.461,0.512,0.066,4.017-1.691,4.231
			c-0.782-6.144,4.188-6.536,6.772-9.312c1.058,3.697-0.002,7.081-0.85,11.009c8.946,0.641-1.16,11.349,4.233,15.239
			c3.703-3.289,2.225-11.64,0.848-13.546c3.898,0.074,1.96,10.422,5.928,7.619c-3.881-0.121,0.545-3.798,0-5.926
			c-0.996-0.135-2.403,0.146-2.54-0.85c0.478-2.061,0.724-4.353,3.387-4.232c1.4,0.017,0.477,2.353,1.694,2.542
			c0.259-1.998,2.939-1.578,2.54-4.231c-5.973-1.571-4.843-0.318-11.009-1.695c-1.179,1.078-0.366,4.146-2.539,4.233
			c-0.006-3.329,2.607-7.166,0.846-11.007c-0.08,1.33,0.115,2.937-1.689,2.539c-0.315-4.843,3.492-10.811-1.692-13.544
			c-2.974,1.825-1.805,7.791-5.081,9.311c0.5-5.078,4.677-9.303,5.081-11.852c1.048,2.619,2.791,4.542,5.08,5.925
			c0.809-1.577-2.54-2.827,0-3.385c2.697,0.966,1.731,5.599,3.385,7.618c2.794-1.831-1.875-5.264,0-5.926
			c2.159,1.788,5.434,2.469,5.928,5.926c6.084-1.098,15.42,8.708,21.166,13.544c-0.499,1.765-1.781,2.738-2.54,4.232
			c2.996,0.463,2.08-2.996,5.081-2.538c2.212,1.453,3.357,3.978,5.076,5.928c-1.38,0.054-2.336,5.612,0.847,8.463
			c0.365-2.738-1.11-7.32,1.692-7.62c-1.019,10.29,0.839,12.874,4.232,17.779c1.299-3.608-3.885-5.067-0.849-7.619
			c1.094,3.443,3.374,10.146,6.774,8.467c-1.119-3.416-5.498-8.02-4.234-11.007c2.103,1.874,2.865,9.521,5.081,8.468
			c-1.375,0.605-1.375-3.993,0-3.386c0.61,5.214,3.987,2.826,3.387,8.464c3.957-1.026,6.204,4.375,7.616,10.159
			c-1.227,0.464-4.373-0.991-4.231,0.847c1.394,3.047,4.004,1.053,5.93,0c-4.038,4.633-5.152,15.067-2.54,19.472
			c0.378-1.664,3.138-5.236,0.847-6.773c-0.134,0.996,0.145,2.405-0.847,2.541c0.553-10.44,2.259-8.078,4.231-13.546
			c0.731,4.915,1.435,9.854,1.691,15.238c4.74-0.069,0.381-5.393,2.54-6.771c1.036,6.303,5.089,9.582,5.93,16.085
			c-0.479,1.22-1.321,2.065-2.54,2.541c-5.429-2.105-6.993,3.361-14.393,1.69c-1.392,6.793-4.132,12.237-7.621,16.935
			c-2.402-3.022,2.594-4.303,2.544-7.621c-5.286,4.586-12.104,8.649-12.701,16.087c2.57-3.079,4.125-7.166,8.469-8.466
			c-0.263,1.994-2.94,1.573-2.541,4.23c1.986,0.269,1.894,2.62,3.387,3.386c1.166-2.678-2.095-5.111,0-5.926
			c0.788,2.513,4.848,6.242,5.928,3.386c3.468,7.853-2.306,17.672-1.694,24.554c4.783-10.902,7.985-23.77-1.691-29.629
			c2.189-2.043,2.367-6.1,5.077-7.621c0.43,2.658-1.992,3.459,0.849,4.229c-0.045-1.456,0.651-2.167,1.693-2.539
			c2.971,3.563,1.513,6.347,3.387,11.007c-1.791-0.795-3.591-5.937-5.929-3.386c3.163,0.272,0.89,5.384,3.389,4.231
			c-0.296,3.732-3.161,9.75,0,11.854c2.621-0.998-0.131-2.129,1.691-3.39c0.905,0.791,0.264,3.124,2.54,2.541
			c-0.324-3.057-1.125-5.652-2.54-7.619c-0.142,1.268,0.305,3.126-0.849,3.388c0-2.257,0-4.517,0-6.774
			c1.21,0.205,1.43,1.396,2.54,1.693c3.219-5.058-3.312-10.279,0-15.237c2.063,0.477,4.357,0.721,4.234,3.388
			c2.42-3.224,8.065-3.224,11.008-5.928c-0.455,4.151,2.91,8.901,0.846,11.852c-0.45-4.921-2.028-10.967-1.688-1.691
			c5.13,3.861,2.971,11.351,4.23,17.778c0.461-1.232-0.99-4.38,0.844-4.236c0.322,4.558-0.134,11.889-3.386,10.159
			c-0.131,3.768,3.431,0.508,4.23,0C336.034,164.039,336.034,164.887,336.034,165.732z M301.323,131.02
			c-0.347-1.44-1.094,0.179-2.54,0c1.405,4.752-7.979,6.126-5.93,11.009C293.904,136.585,300.555,136.748,301.323,131.02z
			 M291.162,138.643c3.148-1.089,3.96-4.504,5.93-6.772C293.589,132.604,292.354,135.6,291.162,138.643z M299.632,125.944
			c-1.374,2.598-7.851,4.533-5.93,7.616C294.686,130.569,301.746,129.225,299.632,125.944z M301.323,120.864
			c-1.325,2.928-8.211,4.743-5.93,8.466C296.015,125.694,303.122,124.104,301.323,120.864z M296.242,121.711
			c0.05-4.205,1.879-11.074,4.232-10.159c-0.302,2.013-4.086,4.867-1.691,6.771c2.976-1.824,2.193-7.4,5.93-8.468
			c0.807,1.577-2.536,2.832,0,3.385c0.443-2.69,7.297-3.375,4.228-6.771c-0.438,0.327-1.252,4.116-1.691,1.695
			c-0.078-2.67,3.146-6.387,0.851-8.463c-0.929,2.459-0.796,5.976-2.545,7.616c-0.847-5.945,4.741-9.917,1.694-15.239
			c-2.145,4.066-0.392,12.026-5.926,12.7c-1.39-4.172,3.174-9.186-1.691-9.312c0.009,5.085,0.131,10.291-3.39,11.851
			c-3.303-2.668,3.02-9.745-1.69-11.009c-1.915-0.396,1.947,4.595-0.85,5.081c0.362-2.405-1.785-6.585-3.385-4.232
			c1.93,1.174,0.314,5.893,0.845,8.467c2.393,0.853,2.125,1.243,3.39,1.693c0.525,4.519-5.996,8.956-1.694,11.852
			c2.413-2.948,1.515-9.209,5.081-11.007c-1.516,5.254-2.923,10.621-5.928,14.389c-1.585-1.518-1.013-5.195-3.387-5.925
			c-0.523,3.991-3.841,5.189-4.234,9.313c4.082,0.405,2.085-5.257,5.081-5.93c0.004,2.595-3.394,6.136-0.847,8.468
			c-0.234-1.931,0.204-3.183,1.693-3.386c0.711,4.257-4.008,9.643,0,11.849c-1.338-3.313,2.197-1.753,2.536-3.387
			c-1.253-0.715-1.224-2.728-1.691-4.231c3.009-0.101,3.405-2.804,3.39-5.928c5.248-0.118,13.924-7.871,14.389-12.699
			C304.729,114.396,299.717,117.28,296.242,121.711z M309.789,119.171c-0.502-1.754,1.047-5.564-0.849-5.93
			C308.221,113.949,306.622,119.859,309.789,119.171z M287.776,117.476c-4.221,0.207-8.71,8.518-4.231,11.852
			C281.394,123.853,285.947,121.38,287.776,117.476z M283.545,115.785c-7.316,2.284-4.873,18.152-2.54,21.164
			C279.301,127.221,281.979,120.616,283.545,115.785z M279.31,119.171c-4.498,1.708-6.475,5.945-11.004,7.617
			c0.088,2.17,0.477,4.039,1.688,5.083c-0.403-3.229,3.921-1.726,2.542-5.926c1.082,0.045,1.174,1.083,2.539,0.843
			c0-1.129,0-2.255,0-3.386C277.573,125.648,278.024,120.718,279.31,119.171z M264.071,127.634c3.52-2.969,6.725-6.259,10.157-9.311
			C270.206,120.236,263.68,124.121,264.071,127.634z M275.924,125.096c0,3.104,0,6.209,0,9.312
			C279.301,134.077,278.532,126.391,275.924,125.096z M300.475,153.033c1.491,2.91-1.143,5.296,1.693,6.772
			c0.134-0.998-0.145-2.405,0.847-2.538c-0.232,5.928-4.24,14.232,0,15.236c0.396,2.17-2.995,4.799-0.847,5.931
			c1.504-8.74,2.401-19.687,1.694-26.248c-0.146,1.266,0.302,3.125-0.848,3.389c-1.204-3.793,2.282-7.249,0-9.313
			c-1.672,0.59,0.209,4.723-1.694,5.081c-1.229-3.005-1.706-6.763-5.927-6.773C291.881,149.219,299.042,150.229,300.475,153.033z
			 M326.723,184.354c-1.114,0.018-1.081,2.354,0,2.54c1.971-3.914-0.301-7.963-1.694-11.003
			C323.547,178.877,324.073,183.141,326.723,184.354z M329.26,190.283c0.408-1.509,0.902,0.366,1.694,0.847
			c-0.655-2.164,3.312-3.892,0.846-5.08c-0.41,1.002-0.903,1.921-1.69,2.537c1.889-3.514-0.688-6.28,0-11.003
			C326.498,180.64,330.931,187.35,329.26,190.283z M244.6,310.5c0.918-1.948,6.925-3.181,4.232-5.927
			C247.225,305.827,243.33,309.173,244.6,310.5z M256.452,267.324c-5.106,1.26-6.237,6.397-5.925,9.312
			c1.166-2.499,3.907-3.427,5.077-5.927c-2.161-0.917-2.96,3.644-4.231,0.844C253.036,270.115,255.608,269.579,256.452,267.324z
			 M254.76,263.938c-0.874,2.229-3.357,2.854-4.232,5.078C253.03,268.937,257.283,266.238,254.76,263.938z M184.491,158.113
			c-0.955,3.493-2.43-3.49-3.385,0c3.92,1.443,1.353,9.366,5.076,11.006C186.227,164.843,185.856,160.984,184.491,158.113z
			 M160.789,147.955c-3.107,0.312-7.726,3.517-5.928,5.924C156.367,151.436,160.307,151.422,160.789,147.955z M166.713,155.576
			c-1.598-0.192-1.866,0.954-3.385,0.846c-1.726-4.586,5.124-4.979,2.541-7.619c-3.936,1.71-2.936,8.353-8.467,8.467
			c-0.413-2.459,3.506-4.868,1.693-5.927c-1.161,1.946-3.485,2.723-5.081,4.233c0.924,2.461,0.794,5.98,2.542,7.616
			c1.707-6.403,1.47,5.724,2.541,2.541c0.462-1.229-0.989-4.376,0.849-4.23c-0.131,1.133,1.328,4.666,1.691,2.539
			c-0.268-1.146-1.204-1.616-0.846-3.387C165.456,161.653,165.188,157.719,166.713,155.576z M179.415,147.107
			c-0.134-0.995,0.142-2.403-0.849-2.541c-5.732,3.592-12.617,10.519-12.7,16.932c3.7-4.202,4.545-11.259,11.004-12.698
			c-0.674,4.037-8.01,8.821-4.231,11.851c1.604-5.719,4.872-9.4,7.617-11.851c1.239,2.428,1.148,6.191,3.387,7.618
			c-0.312-4.037-0.579-4.337-1.689-8.464c2.043,3.466,3.068-5.388,0-4.233C180.51,144.252,180.558,146.277,179.415,147.107z
			 M168.409,159.806c3.268-0.68,2.815-5.086,5.077-6.772C170.464,153.958,170.179,157.625,168.409,159.806z M225.977,119.171
			c-0.146,1.268,0.306,3.125-0.851,3.385c0.408-2.664-1.205-3.307-1.69-5.078c-4.877,2.906-6.055,4.307-11.85,5.925
			c-1.492-0.203-1.933-1.455-1.694-3.389c4.804,2.069,2.728-3.156,7.621-4.228c0.132,0.996-0.145,2.403,0.844,2.538
			c2.055-1.684-1.427-3.618,1.692-4.233c-0.276,2.043,6.382,4.02,5.929,0.848c-3.235,0.24-6.551-2.525-9.312-5.081
			c0.126,2.102,0.158,4.109-1.69,4.233c-2.006-2.424-4.796,0.844-6.774-0.85c-4.188,3.996-4.014,12.355-9.312,15.242
			c-0.116-1.578-0.553-2.83-1.69-3.386c-1.757,2.85-7.685-1.965-11.007-0.849c0.084,5.166-5.226,4.931-5.081,10.161
			c-2.44-3.33-2.804,4.509-1.688,0c1.08,2.426-0.01,5.198,0.842,9.311c6.416-0.911,1.248-13.026,5.081-14.392
			c0.455,3.902-2.817,9.032,0.847,11.003c-4.075,1.364-0.716,11.883,1.693,9.311c-1.384,0.384-1.384-4.611,0-4.23
			c0.134,0.996-0.143,2.405,0.847,2.542c3.034-4.636-1.017-16.124,3.39-21.169c0.097,5.744-3.886,15.644,0.849,16.086
			c-0.838,2.033-4.832,5.272-2.54,7.621c2.312-2.501,4.715-9.373,7.619-8.466c-10.411,8.27-3.758,18.265,0.844,27.09
			c7.138-0.647,9.925,3.06,16.088,3.386c1.154-5.1-1.97-5.931-1.693-10.158c-6.434-1.383-12.144,2.068-16.931-5.079
			c3.991-4.384,3.714-5.357,5.926-9.311c-0.453,5.492,1.369-1.248,2.54,1.688c-0.731,2.133-5.675,4.427-3.385,6.774
			c1.051-4.353,6.472-6.341,2.54-11.007c0.902-0.789,0.264-3.123,2.536-2.541c-0.244,0.521-2.103,3.26,0,3.388
			c2.54-4.057-0.817-7.636-2.536-5.929c0.953-3.274,1.597-6.865,4.229-8.463c-3.881,7.762-0.319,5.391,1.694-0.851
			c-3.153,1.316-7.48,0.152-9.31,0.851c-0.528,2.297,1.071,6.716-0.848,7.62c0.409-2.67-2.6-1.918-1.694-5.08
			c2.778,2.526,0.937-4.698,4.23-4.234C212.618,133.508,228.974,128.022,225.977,119.171z M201.425,158.958
			c1.674-4.53,7.062-5.35,7.615-11.003C206.571,151.139,201.041,155.73,201.425,158.958z M208.196,108.164
			c-0.794,3.107-3.075,4.582-1.692,7.621c0.498-1.767,1.78-2.741,2.542-4.233c-0.658-0.191-1.671-0.025-1.694-0.85
			C208.374,110.964,210.271,108.259,208.196,108.164z M212.428,102.238c-2.774,1.175-4.009,3.886-5.928,5.926
			C209.821,107.533,211.058,104.818,212.428,102.238z M202.269,111.55c-0.877,5.894-5.13,8.407-6.772,13.546
			c4.071-0.45,2.507-6.523,6.772-6.772c-1.341,1.521-4.202,5.899-1.691,8.464C201.518,122.443,206.35,115.597,202.269,111.55z
			 M169.254,148.8c3.41-1.669,6.51-3.65,10.161-5.079c-0.196-1.499,0.854-4.24-1.695-3.39
			C177.428,145.007,167.767,142.074,169.254,148.8z M173.485,140.332c-3.485,0.216-7.897,3.919-6.772,5.928
			C168.635,143.95,173.451,144.53,173.485,140.332z M161.635,140.332c3.151-1.079,7.029-1.433,8.467-4.233
			C167.401,134.288,161.18,136.184,161.635,140.332z M182.799,93.771c-1.499,3.516-1.579,12.074,1.692,13.546
			C185.739,102.912,185.842,96.25,182.799,93.771z M199.733,92.078c1.742-1.675,4.378-6.862,6.767-5.081
			c-1.267,1.558-3.531,2.114-4.231,4.233c2.924,0.044,7.798-5.84,3.388-7.621C204.612,86.822,198.005,88.91,199.733,92.078z
			 M218.355,84.459c0.574-3.166,2.814,0.628,3.387-2.539c-1.99-2.049,2.951-4.343,3.388-6.772
			C222.011,76.847,218.589,82.692,218.355,84.459z M249.679,47.207c1.51-0.468,3.518-0.431,4.231-1.69
			C252.649,44.173,249.085,44.279,249.679,47.207z M196.344,36.205c-0.852,1.124-0.8,3.147-2.54,3.385c0-0.47-0.684-0.958-0.848,0
			C194.888,43.188,200.005,38.072,196.344,36.205z M201.425,57.366c-0.415-2.671,1.523-2.987,0.844-5.928
			c-1.163,0.039-1.856-0.396-2.535-0.846C200.745,53.919,198.831,55.268,201.425,57.366z M263.229,58.213
			c1.597-0.191,1.863,0.954,3.383,0.851c0.862-1.117,0.832-3.123,1.693-4.234C265.791,55.137,264.132,56.295,263.229,58.213z
			 M267.458,52.287c-1.476,0.062-2.633-0.189-3.387-0.849c0.269,1.965-0.135,3.25-0.846,4.233
			C265.707,55.617,266.372,53.738,267.458,52.287z M258.148,62.446c0.384-2.749,5.659-8.588,2.541-9.312
			C259.836,55.705,255.626,59.32,258.148,62.446z M279.31,60.754c2.106,0.133,2.621-1.329,4.234-1.69
			c-0.146-1.269,0.302-3.127-0.85-3.391C281.658,57.453,280.354,58.977,279.31,60.754z M269.152,60.754
			c0.523-1.769,4.341-3.181,0.845-4.23C269.75,57.523,266.591,59.718,269.152,60.754z M264.071,64.984
			c0.362-1.61,1.821-2.125,1.694-4.23c-1.211-0.204-1.43-1.395-2.54-1.69C262.067,60.203,261.607,64.972,264.071,64.984z
			 M280.158,64.142c0.655-2.166,5.455-0.188,5.081-3.388C282.878,60.71,277.979,62.451,280.158,64.142z M275.924,68.375
			c-1.919-3.045-1.231-5.412-3.387-6.773c-3.072,6.083-5.755,12.712-6.768,18.625c2.651,0.399,2.384-2.13,3.383-3.386
			c-3.043-1.135,1.415-8.488,3.388-10.158c0.507,1.505-2.481,3.514,0,4.231c0.847-1.129,1.396-2.556,2.539-3.388
			C275.041,68.429,275.48,69.678,275.924,68.375z M258.991,62.446c-0.178,4.965,0.337,8.136-2.539,13.547
			c3.58-0.657,1.901-6.564,5.079-7.619c1.682,1.139-0.268,5.911,2.54,5.923c0.528-3.956,6.426-6.198,4.234-10.156
			c-3.511,0.161-2.868,4.473-5.927,5.078C263.611,64.819,261.328,66.198,258.991,62.446z M258.148,84.459
			c-1.496-0.738-2.621-2.832-3.389,0c2.98,3.041-4.675,7.116-2.541,9.312c2.541-1.693,2.257-6.216,5.93-6.773
			c0.133,0.996-0.146,2.405,0.847,2.542c1.596-2.919,5.282-3.75,5.926-7.619c-2.999-0.183-1.674,3.97-5.078,3.386
			c2.189-2.904,7.731-6.919,5.078-11.854C263.153,77.611,260.88,81.266,258.148,84.459z M278.465,64.984
			c0.135,2.108-1.33,2.623-1.691,4.232c3.179-1.054,6.511-1.956,7.616-5.078C282.402,64.411,281.215,65.477,278.465,64.984z
			 M281.85,69.22c6.219,3.301-3.11,6.466,0,11.006c0.216-3.17,1.328-5.444,3.39-6.773c-0.256,1.666,1.143,1.68,1.691,2.542
			c0.65,2.158-3.314,3.89-0.85,5.077C289.711,77.274,288.305,69.645,281.85,69.22z M290.317,72.607
			c-1.351-1.754-1.838-4.372-4.233-5.083C284.595,68.751,288.705,74.62,290.317,72.607z M278.465,75.994
			c2.657,0.395,2.39-2.133,3.389-3.386C279.203,72.215,278.074,73.341,278.465,75.994z M272.537,84.459
			c1.224,1.871,2.065-1.065,2.541,0.848c0.129,4.292,2.166-3.558,5.08-3.386c-0.271,1.036,0.134,5.224,0.847,2.539
			c1.104-3.75-3.606-3.915-0.847-6.773c-4.125-1.301-2.54,3.107-4.234,4.235c-0.891-4.28,1.931-4.847,1.694-8.469
			C273.226,74.42,275.296,81.854,272.537,84.459z M252.219,86.153c0.305-2.015,4.087-4.869,1.691-6.773
			C253.996,81.777,250.558,84.977,252.219,86.153z M294.552,86.997c0.437-2.424,4.431-5.669,2.54-7.617
			C296.791,81.945,292.871,85.261,294.552,86.997z M213.277,85.307c-0.254-1.665,1.143-1.68,1.691-2.541
			c-2.03,0.333,0.47-3.858-2.541-2.54C212.917,81.714,211.407,85.202,213.277,85.307z M230.205,87.845
			c0.577-2.013,3.833-5.7,1.694-7.619C231.495,82.409,228.486,86.338,230.205,87.845z M195.496,87.845
			c2.57-0.812,8.903-5.955,5.933-6.772C200.364,84.243,196.688,84.801,195.496,87.845z M236.135,88.692
			c0.343-1.697,2.098-6.281,0-7.621C236.429,83.409,233.703,87.018,236.135,88.692z M247.141,91.23
			c-0.536-3.677,4.132-6.536,1.691-9.31C248.797,85.022,244.299,88.058,247.141,91.23z M254.76,100.544
			c4.181-6.02,3.715-6.964,9.312-11.851c0.297,3.047,1.297,4.079,0,6.772c3.211-0.459,4.966-2.369,4.234-6.772
			c-2.121,0.105-2.655,1.615-3.39-0.849c0.837-0.669,3.224-3.976,1.691-4.233C262.266,88.306,254.74,94.306,254.76,100.544z
			 M252.219,98.006c2.916-0.221,6.334-7.92,5.081-6.774C255.681,93.566,253.54,95.376,252.219,98.006z M187.881,90.385
			c-0.301-2.521-0.491-5.153-2.54-5.926C185.451,87.165,184.504,90.938,187.881,90.385z M238.675,92.078
			c0.892-0.877,1.747-6.043,0-6.771C239.862,88.267,236.299,90.722,238.675,92.078z M270.844,89.54
			c-2.104-0.131-0.244-2.867,0-3.386c-1.163-0.038-1.856,0.397-2.538,0.844c-0.189-0.659-0.023-1.669-0.848-1.69
			C268.116,86.69,269.295,91.844,270.844,89.54z M273.384,92.078c0.141-2.962-0.223-5.417-1.691-6.771
			C272.392,87.431,270.046,92.594,273.384,92.078z M212.428,92.928c-0.396-2.17,2.995-4.8,0.85-5.931
			C212.836,88.33,210.018,91.531,212.428,92.928z M233.595,93.771c0.187-1.588,2.183-5.61,0-6.773
			C234.254,90.139,230.12,92.813,233.595,93.771z M283.545,92.928c-0.512-1.748,1.366-5.883-1.691-5.083
			C282.361,89.589,280.487,93.729,283.545,92.928z M228.514,96.308c0.745-2.119,3.925-6.178,2.541-7.616
			C230.12,90.625,226.87,94.609,228.514,96.308z M220.898,97.156c-3.118-0.292-2.562,3.087-3.39,5.082c-2.534,0.171,0.809,3.514,0,0
			c2.442-2.937,6.966-8.252,5.927-11.853c0,0.563,0,1.133,0,1.692C221.615,92.796,220.439,94.163,220.898,97.156z M209.89,95.466
			c0.045-0.515,0.128-1.002,0.848-0.848c-0.616,3.708,1.682-0.682,1.69,1.69c0.126,1.129-2.847,3.153-0.847,3.393
			c0.361-1.619,2.42-1.534,1.693-4.235c-1.119-0.014-0.773-1.486-1.693-1.693C211.826,94.723,207.599,93.718,209.89,95.466z
			 M203.965,103.929c2.878-1.836,3.004-7.53,1.691-9.311C206.294,97.738,201.72,100.169,203.965,103.929z M214.125,101.389
			c3.754,1.578,5.021-6.723,1.692-6.771C215.769,97.391,213.407,97.854,214.125,101.389z M286.084,94.618
			c-1.291,1.213-0.824,4.411,1.692,4.233C287.902,96.753,287.935,94.745,286.084,94.618z M240.366,103.929
			c0.414-2.731,3.095-5.002,0-6.773C239.58,99.516,237.303,102.191,240.366,103.929z M243.756,103.087
			c-1.026-2.606,3.691-5.993,0-5.931C243.756,98.667,241.474,102.082,243.756,103.087z M259.84,108.164
			c3.321-3.562,6.946-5.76,7.618-11.008C264.706,102.062,255.715,112.579,259.84,108.164z M257.3,103.929
			c0.198-0.244,4.825-2.948,3.39-5.925C259.04,101.742,253.577,108.521,257.3,103.929z M226.822,104.777
			c0.559-1.757,4.855-4.101,2.541-5.926C228.804,100.607,224.509,102.952,226.822,104.777z M237.826,104.777
			c0.409,2.667-2.598,1.917-1.691,5.078c2.389,0.135,2.126-2.393,3.387-3.388c-2.183-0.919-0.741-5.466-2.539-6.767
			c0.069,2.379-4.115,4.837-1.692,6.767C234.546,104.727,238.081,103.264,237.826,104.777z M282.696,103.929
			c0.259-1.998,2.942-1.576,2.543-4.229C283.05,99.287,280.439,102.692,282.696,103.929z M201.425,110.702
			c3.15-1.541,9.812-7.998,6.77-10.158C206.103,104.095,202.646,106.282,201.425,110.702z M166.713,103.929
			c0.117,1.58,0.556,2.828,1.695,3.388c0.707-1.335,3.656-4.721,1.693-5.928C169.362,102.628,169.428,104.669,166.713,103.929z
			 M184.491,111.55c1.731-1.375,1.589-4.623,4.231-5.083c-2.242,0.271,0.791-4.74-2.54-3.383
			C187.28,106.821,182.871,112.79,184.491,111.55z M245.447,111.55c-0.285-4.052-0.068-6.725-0.848-8.465
			C243.18,104.93,244.481,109.472,245.447,111.55z M213.277,107.317c2.227,0.255,2.776-1.172,2.54-3.388
			C213.59,103.674,213.041,105.102,213.277,107.317z M316.561,109.01c1.164-1.087,1.477-5.062-0.849-5.081
			C315.118,106.043,314.882,107.411,316.561,109.01z M320.793,116.631c0.464-2.022,3.152-6.133,0-6.773
			C319.898,110.737,319.046,115.901,320.793,116.631z M190.42,120.013c0.334-2.8,5.298-5.376,3.388-7.615
			C193.872,115.6,188.241,117.504,190.42,120.013z M187.881,119.171c0.195-1.316,3.253-3.952,0.847-5.081
			C188.532,116.271,184.356,118.158,187.881,119.171z M251.373,121.711c2.266-2.27,8.964-4.553,7.618-7.621
			C257.43,117.062,250.376,118.992,251.373,121.711z M245.447,120.013c-0.238-1.819,5.54-4.145,0.849-5.077
			C247.594,117.745,242.286,118.136,245.447,120.013z M188.723,121.711c-0.516-2.869-5.412-1.36-5.08-5.081
			c-1.164-2.693-0.838,2.991-0.848,4.233c-2.336-2.314-0.792,1.237-2.539,1.69c-0.145-1.263,0.306-3.125-0.844-3.385
			c0.532,2.848-2.783,6.172-0.851,7.616c2.034-3.043,7.451-2.708,9.312-5.924C187.843,121.763,188.275,123.011,188.723,121.711z
			 M230.205,120.013c2.658,0.401,2.39-2.127,3.39-3.385c-1.963,0.081-3.559,3.906-3.39-0.846c-2.118-0.143-2.646,1.299-3.387,2.539
			C228.322,118.518,231.063,117.469,230.205,120.013z M165.869,128.482c2.804-0.299,3.67-2.536,5.081-4.233
			c-2.623-0.199-2.642-3-3.387-5.079c-3.572,4.329-9.106,6.694-13.549,10.159C159.32,131.19,167.188,122.561,165.869,128.482z
			 M247.141,131.871c-0.8-2.201-1.546-4.974,0.847-5.926C244.693,122.088,244.301,132.101,247.141,131.871z M302.168,130.174
			c2.384,0.123,2.443-2.073,2.545-4.23C302.092,125.8,300.904,128.92,302.168,130.174z M174.334,137.793
			c0.438-3.26,4.402-7.41,2.538-10.159C176.868,131.326,172.549,135.122,174.334,137.793z M221.742,130.174
			c2.678,0.861-3.829,3.917-0.844,5.081c1.836-1.268,1.349-4.858,4.228-5.081c0.812,1.578-2.532,2.829,0,3.386
			c1.019-1.617,4.506-6.035,0-5.926C226.482,130.968,221.475,127.931,221.742,130.174z M286.084,134.411
			c0.188-1.588,2.183-5.611,0-6.774C287.06,130.386,283.496,132.844,286.084,134.411z M162.482,132.713
			c-0.516,3.113,7.271,2.264,5.927-0.845C165.66,131.378,164.469,132.442,162.482,132.713z M230.205,137.793
			c0-1.512,2.281-4.925,0-5.926C230.209,133.382,227.93,136.793,230.205,137.793z M226.822,141.182c1.035-1.283,1.664-7.294,0-8.469
			C226.938,135.148,224.471,139.317,226.822,141.182z M317.407,135.255c-0.776,5.449,2.518,10.234-1.691,12.7
			c0.692,2.407,1.911,4.296,4.231,5.077c0.211-3.593-2.215-4.558-1.69-8.467c4.503,0.962,0.378-4.13,3.387-5.923
			c0.574,2.333,0.152,1.93,2.54,3.386c-0.064,1.183,0.187,3.235,0.848,1.693c-0.537-5.708-0.465-8.266,1.692-10.161
			C323.195,131.397,321.854,140.111,317.407,135.255z M211.586,135.255c0,0.565,0,1.129,0,1.691c-0.474-0.002-0.962,0.685,0,0.847
			c1.967-2.188,3.422,7.795,4.231,6.771c0-1.973,0-3.948,0-5.923c-1.224-1.874-2.066,1.061-2.54-0.85
			c0.607-0.697,2.656-5.477,0.848-3.385C213.134,136.639,213.07,137.356,211.586,135.255z M308.095,141.182
			c-0.378-1.599,1.149-5.105-1.693-4.232C305.904,138.959,305.104,140.889,308.095,141.182z M331.8,150.492
			c-0.887-4.64-0.989-9.538-4.231-13.546c-1.664,4.963,3.649,7.439,0,9.312C329.307,146.839,330.347,152.434,331.8,150.492z
			 M216.665,138.643c1.746,2.484-0.924,9.388,2.542,10.157C217.545,146.225,219.544,139.992,216.665,138.643z M158.248,147.955
			c4.885-1.043,7.655-4.197,10.161-7.623C164.054,141.356,158.701,145.844,158.248,147.955z M275.924,175.043
			c3.973-9.132,15.51-15.982,10.16-27.088c-3.583,0.472-2.882-3.331-5.926-3.391c-2.537,7.912-14.403,10.993-15.239,17.78
			c-0.148-1.923,2.858-4.935,3.387-3.388c-1.679,1.953,0.213,0.941,0.847,2.541c-0.847,1.129-1.397,2.556-2.54,3.388
			c-1.764-0.482-2.736-2.42-4.229-0.848c1.612,12.667-7.392,18.972-5.927,28.783c0.885,5.94,8.314,11.248,11.005,17.779
			c1.866,4.532-0.049,8.547,3.385,12.698c0.826-19.498,20.667-19.97,32.173-28.782c-0.289-2.029-3.325-5.629-1.691-6.771
			c1.18,1.074,0.366,4.146,2.541,4.231c0.678-2.94-1.265-3.255-0.85-5.93c-4.029-0.444-4.54,2.728-8.467,4.234
			c-0.562-5.615,2.272-9.934-0.847-11.849c-2.783,3.984-4.664,8.876-5.926,14.386c-0.491-4.719,0.977-7.488,1.691-11.003
			c-4.242,0.554-1.777,7.816-4.23,10.161c-0.505-1.758,1.047-5.565-0.851-5.932c-1.233,1.587-0.031,5.612-1.691,6.77
			c-2.304-4.57,1.471-9.602,3.388-12.696c-4.687-1.018-4.917,2.416-8.465,2.542c0.535-2.305,5.777-2.438,3.387-5.081
			C277.698,177.452,279.461,172.858,275.924,175.043z M330.109,160.654c-1.326-3.189-0.092-8.941-1.696-11.852
			c-0.845,0-1.689,0-2.536,0C327.523,152.508,325.729,159.669,330.109,160.654z M187.881,155.576
			c-2.228-1.16-0.401-6.377-4.234-5.931C184.106,152.048,186.594,156.802,187.881,155.576z M297.934,155.576
			c-0.085-3.584-2.28-5.06-5.08-5.931C294.734,151.436,294.81,155.031,297.934,155.576z M306.401,158.113
			c-0.521-2.105,3.088-6.599-0.847-6.771C306.073,153.366,304.493,157.482,306.401,158.113z M205.656,158.958
			c2.728-1.224,3.754-4.147,5.081-6.771C208.01,153.412,206.981,156.334,205.656,158.958z M321.642,155.576
			c3.987-1.349,1.475,5.605,4.231,7.616c2.171-4.183-0.906-9.581-4.231-11.005C321.642,153.316,321.642,154.445,321.642,155.576z
			 M180.26,158.113c-0.512-1.748,1.365-5.883-1.693-5.08C177.343,155.656,178.706,156.32,180.26,158.113z M289.471,156.418
			c-1.081,4.018-3.953,10.697-2.54,14.392c0.41-1.505,0.906,0.366,1.693,0.846c0.623-2.257,3.095-10.541,1.693-9.31
			c-0.994,1.268-1.053,3.464-2.541,4.231C287.715,163.098,291.43,158.987,289.471,156.418z M294.552,157.268
			c3.459,1.661-0.983,7.325-2.541,9.31c1.018-2.133,3.4-10.927-0.849-8.466c3.775,2.605-2.147,8.775,0,11.852
			c-0.61-1.386,1.683-3.682,1.691-1.692c-0.888,0.045-0.664,1.085,0.849,0.847c-0.61-2.588,1.459-2.489,0.85-5.079
			c2.663,0.968,2.054-1.331,3.387-1.692c-0.09,2.166-0.481,4.037-1.693,5.079c-0.132-0.996,0.144-2.403-0.848-2.538
			c-0.127,2.102,0.438,3.511,1.694,4.23c1.424-2.551,4.121-8.264,1.691-11.85c-0.648,2.456-1.338,4.867-3.39,5.924
			C296.952,161.653,298.117,154.673,294.552,157.268z M325.028,165.732c-1.964-3.116-1.304-8.854-5.927-9.311
			c-0.232,3.622,2.584,4.187,1.691,8.467C322.483,164.897,324.462,166.15,325.028,165.732z M177.72,170.81
			c-0.082-3.018-0.395-5.812-2.536-6.769C176.422,165.903,175.081,170.35,177.72,170.81z M298.783,180.122
			c0.32-0.5,0.43-11.364-0.85-10.157C298.349,173.903,295.39,178.069,298.783,180.122z M304.713,175.043
			c1.597,0.19,1.863-0.952,3.387-0.846c-0.285-1.975-0.868-3.647-2.545-4.232C306.168,172.55,304.689,173.051,304.713,175.043z
			 M281.85,177.584c1.166-0.038,1.859,0.399,2.54,0.851c-0.217-3.038,2.541-3.105,2.541-5.931
			C284.193,173.152,282.497,174.848,281.85,177.584z M308.095,176.736c1.184,2.435-2.308,4.303,0,5.082
			c0.298-2.805,2.536-3.675,4.23-5.082c-0.468-1.508-0.436-3.514-1.694-4.232c-1.655,1.582-0.259,3.104,0,5.08
			C309.55,177.541,309.46,176.499,308.095,176.736z M305.555,188.587c0.076-1.501,3.482-6.199,0-5.923
			C306.725,185.341,303.457,187.772,305.555,188.587z M219.207,192.821c0.923-2.213,5.329-5.338,4.229-6.771
			C222.602,188.354,217.479,190.768,219.207,192.821z M219.207,196.21c2.577-0.008,5.535-3.993,4.229-5.08
			C222.56,193.357,220.078,193.983,219.207,196.21z M251.373,200.442c2.102-0.49,3.646-5.885,2.537-6.774
			c-0.203,0.924-1.395,2.034-1.691,0.851c0.236-1.271,3.644-3.567,1.691-4.233C250.427,192.913,252.918,196.368,251.373,200.442z
			 M255.608,201.291c-1.28-2.708,2.455-6.482-0.849-5.927C255.475,198.374,252.309,200.434,255.608,201.291z M259.84,204.676
			c-0.285-1.975-0.865-3.648-2.54-4.231C255.028,202.701,258.495,203.542,259.84,204.676z M243.756,206.367
			c1.424,0.347,3.805,3.991,5.076,1.695c-2.591-0.553-4.491-3.605-1.691-5.084c0.133,0.999-0.145,2.406,0.847,2.545
			c-0.035-1.165,0.4-1.862,0.848-2.545c-0.981-0.707-2.269-1.115-4.234-0.847C245.301,204.529,243.406,204.327,243.756,206.367z
			 M261.531,241.083c-0.463-0.74,0.792-0.72,0.849-0.85c-3.797,8.806,0.202,4.024,0.85-1.695
			C263.367,239.685,258.921,240.232,261.531,241.083z M251.373,247.852c0,0.848,0,1.694,0,2.542
			c2.301-0.524,3.964-1.682,5.079-3.388C253.876,246.766,253.162,249.716,251.373,247.852z M258.148,248.699
			c-3.356,0.902-8.081,4.868-5.93,8.468c1.166-1.7,6.43-3.677,4.233-5.928c-1.567,1.254-1.267,4.374-4.233,4.229
			C253.278,252.298,256.532,251.32,258.148,248.699z M251.373,263.092c0.19-2.125,4.291-4.665,2.537-5.93
			C253.354,258.922,249.058,261.265,251.373,263.092z M258.148,268.173c2.477-0.871,2.745-2.63,4.231-2.543
			c-2.166-1.436,1.821-5.655-1.69-6.77c0.139,1.914-4.072,3.719-1.694,5.077c0.849-1.124,0.8-3.149,2.54-3.386
			C261.425,264.113,258.251,264.608,258.148,268.173z M249.679,291.029c-0.329-1.46,1.256-2.175,0-2.541
			c-1.098,1.124-1.114,3.149,0.849,3.386c0.655-0.854,4.059-3.143,1.691-4.231C251.366,288.766,251.422,290.793,249.679,291.029z"/>
		<path fill="#FFFCF2" d="M187.032,71.759c3.869,2.534-2.037,3.754-0.85,8.467C183.996,81.108,186.687,73.819,187.032,71.759z"/>
		<path fill="#FFFCF2" d="M166.713,96.308c-5.406-1.314-8.364-3.783-6.772-10.155c0.642,0.663,2.889,5.238,0,4.23
			c1.408,1.697,2.272,3.936,5.081,4.233c0.685-0.162,0.847-0.851,1.693-0.849c-1.076-1.742-1.349-4.293-4.233-4.23
			c0-1.695,0-3.386,0-5.081C163.709,88.566,168.732,91.564,166.713,96.308z"/>
		<path fill="#FFFCF2" d="M147.24,96.308c1.515,2.157,4.188,3.153,3.39,7.621C149.61,101.28,148.308,98.915,147.24,96.308z"/>
		<path fill="#FFFCF2" d="M238.675,25.196c0.743,3.362-1.219,11.695-0.849,15.24C234.169,37.922,238.725,29.675,238.675,25.196z"/>
		<path fill="#FFFCF2" d="M235.286,28.584c-2.8,5.1,3.277,18.417-1.691,22.011C237.246,44.011,230.002,36.016,235.286,28.584z"/>
		<path fill="#FFFCF2" d="M231.055,30.277c1.244,1.588,1.464,6.756,0.849,7.619c-1.839,0.144-0.385-3.002-0.849-4.233
			c-2.215,1.175-1.278,5.492-3.385,6.773c-2.544-2.667-5.769,0.663-7.621,3.386c-3.123-4.288,5.782-3.787,5.077-8.466
			c2.548-0.853,1.501,1.885,1.692,3.388C229.621,37.307,229.011,32.465,231.055,30.277z"/>
		<path fill="#FFFCF2" d="M190.42,31.123c3.045-0.414-0.763,4.891-2.539,5.081C186.718,32.505,191.157,34.401,190.42,31.123z"/>
		<path fill="#FFFCF2" d="M175.184,49.749c6.527,2.737-0.113,7.259,0,12.697c5.32-3.902,4.793-10.837,3.383-17.777
			c3.021,2.577,2.54,7.352,1.693,11.853c2.587-3.587,2.365-7.536,1.693-12.702c3.636,4.164,1.298,8.344,0,13.546
			c3.266,0.162,0.901-5.305,2.538-6.771c2.563,2.076-0.64,5.506,0,8.469c3.269,0.158,0.901-5.31,2.541-6.775
			c1.682,1.534-1.961,10.397,1.69,9.312c-0.437,3.902-2.863,0.903-5.08,3.385c0.617-2.588-1.459-2.491-0.848-5.081
			c-1.486,0.207-1.928,1.457-1.688,3.392c0.298,1.325,1.49-0.746,1.688,0.846c-3.51,3.6-7.395,9.212-5.925,15.238
			c-4.865-3.661-2.764-9.968-1.692-16.084c-3.019,0.932-1.773,6.124-3.386,8.463c-1.332-3.555,0.6-8.583-0.847-12.695
			C174.487,58.087,174.322,53.405,175.184,49.749z M176.025,51.441c-0.166,2.973-3.995,6.679-1.691,9.313
			C174.518,57.798,177.71,53.456,176.025,51.441z M176.872,71.759c-0.294-2.335,2.433-5.945,0-7.618
			C176.525,65.836,174.776,70.42,176.872,71.759z"/>
		<path fill="#FFFCF2" d="M175.184,86.153c0.157-0.963,0.846-0.472,0.846,0c2.579-1.038-1.237-3.233,0.846-4.233
			c4.376,0.986,4.214,6.509,4.231,11.85C176.981,93.383,177.964,87.884,175.184,86.153z"/>
		<path fill="#FFFCF2" d="M138.776,107.317c2.702,1.68-5.263-0.268-4.234,2.539c1.938,3.307,5.153,0.067,9.315,0.847
			c-0.311,1.44,0.659,1.597,1.693,1.696C140.074,116.938,126.973,107.694,138.776,107.317z"/>
		<path fill="#FFFCF2" d="M159.094,109.855c-0.608,3.06-4.918,2.42-5.081,5.93C153.933,111.118,151.959,111.315,159.094,109.855z"/>
		<path fill="#FFFCF2" d="M195.496,150.492c-2.385-3.55,3.352-6.218,4.237-9.311C200.862,143.475,195.633,146.657,195.496,150.492z"
			/>
		<path fill="#FFFCF2" d="M144.7,117.476c2.664,0.122,2.91-2.169,3.389-4.235C152.008,115.666,143.291,120.231,144.7,117.476z"/>
		<path fill="#FFFCF2" d="M148.933,129.33c-2.8-2.045,3.639-1.939,2.541-5.081c-1.175-1.933-2.927,2.651-4.234,3.387
			c-1.634,0.999,2.94-5.187,4.234-6.771c1.566-0.801,0.519,4.845,1.696,1.69C154.437,124.155,150.661,127.907,148.933,129.33z"/>
		<path fill="#FFFCF2" d="M187.881,130.174c0.905-2.584-0.849,24.667-0.849,6.772C187.032,134.326,187.325,131.75,187.881,130.174z"
			/>
		<path fill="#FFFCF2" d="M204.809,133.561c-1.98,1.123-0.385,5.823-3.384,5.93C202.469,137.428,202.139,133.992,204.809,133.561z"
			/>
		<path fill="#FFFCF2" d="M327.568,146.26c3.649-1.871-1.664-4.349,0-9.311c3.242,4.008,3.345,8.905,4.231,13.546
			C330.347,152.434,329.307,146.839,327.568,146.26z"/>
		<path fill="#FFFCF2" d="M187.032,171.656c0.95,2.951-4.426,6.847-3.39,12.697c-1.679-0.008-1.074-2.309-3.387-1.689
			c0.144-2.399,1.552-3.527,1.695-5.928c2.508,1.23-1.118,3.305,0,5.928C183.873,179.223,184.938,174.925,187.032,171.656z"/>
		<path fill="#FFFCF2" d="M187.032,180.971c-2.68-2.188,0.849-5.306,0.849-7.616C190.022,175.01,185.974,177.599,187.032,180.971z"
			/>
		<path fill="#FFFCF2" d="M329.26,203.829c-0.717,2.792-1.5,4.392-2.537,8.468c-2.109-0.13-0.25-2.865,0-3.39
			c-2.158,0.104-3.287,1.232-3.39,3.39c-2.2-2.28-2.554,1.033-5.081,0.847c-7.99,16.562-18.403,30.699-29.63,44.023
			c-0.112,8.635-1.395,16.102-0.847,25.395c-3.815,3.523-8.336,6.338-11.853,10.16c-4.413-12.097,1.821-23.077,3.387-31.325
			c3.195-0.375,3.975,1.673,5.93,2.541c-0.394-2.43-0.981-4.666-3.39-5.077c0.532-2.06,4.276-0.451,3.39,1.691
			c3.294-3.083-2.385-4.341-2.543-6.771c2.657-0.404,2.234,2.275,4.234,2.54c1.26-4.365-2.021-4.191-2.541-6.774
			c2.885,1.661,3.303-0.8,0.85-1.691c0.757-2.286,3.432,0.394,2.537,2.54c2.503-1.482-0.488-4.509,0-6.771
			c2.937-0.397,0.486,4.592,2.541,5.076c1.502-1.29-0.688-6.036-2.541-6.774c1.435-2.191,4.265,1.314,3.386,4.234
			c3.16-2.312-1.521-6.749,0-7.617c2.571-0.31,1.76,2.762,2.54,4.231c2.679-1.836-3.108-5.165-0.849-6.771
			c2.217,0.89,2.77,3.438,2.54,6.771c1.489-0.997,1.571-7.721-0.847-7.618c0.345-2.108,3.285-0.052,2.541,1.693
			c4.132-1.163-1.375-3.489,0.846-5.078c1.045,0.37,1.743,1.078,1.694,2.537c0.672-4.131,0.638-1.874,4.234-4.233
			c-3.41-1.63,0.224-3.538,0.846-5.925c1.365-0.236,1.46,0.798,2.538,0.845c-1.726-0.446,1.198-10.351,4.234-5.076
			c3.559-1.117-0.004-2.779,0-5.076c0.563,1.642,5.512,0.578,2.537-0.852c0.835-2.596,2.26,0.97,3.389,0.852
			c0.611-2.59-0.864-3.09-0.848-5.085c1.864,2.238,3.965,1.685,3.387-2.54c2.258,4.923,1.209,0.004,4.234-2.536
			c2.832-2.383,8.096-0.601,7.616-4.234c1.485,1.825-1.126,4.17-0.848,5.925C329.146,206.766,329.341,205.156,329.26,203.829z"/>
		<path fill="#FFFCF2" d="M211.586,48.902c-2.109-0.127-0.247-2.865,0-3.386c-2.882,1.558-2.192,2.858-0.849,5.079
			c-5.009,0.633-2.229,9.061-5.929,11.006c2.135-3.55-1.836-3.778-0.844-8.467c1.251-0.983,2.131-0.983,3.384,0
			c-0.121-5.199,2.144-8.018,4.232-11.009C213.329,42.855,212.479,48.021,211.586,48.902z"/>
		<path fill="#FFFCF2" d="M176.872,94.618c0.848,0,1.694,0,2.543,0c-0.343,3.605,0.816,8.721-0.849,11.005
			C175.276,103.485,176.338,98.736,176.872,94.618z"/>
		<path fill="#FFFCF2" d="M190.42,175.891c-2.571,1.045,0.92,2.915,0,5.08c2.691-0.975,0.521-6.814,5.076-5.928
			c-0.474,3.222-2.323,5.57-0.845,8.469c-1.848-0.154-2.693,0.693-2.539,2.538c-2.938-1.572-4.509,0.406-7.621,0.849
			c-0.605-2.589,0.866-3.085,0.85-5.08c0.99,0.136,0.712,1.544,0.846,2.539c2.983-1.816,1.813-7.782,3.387-11.003
			c0.682,0.446,1.375,0.881,2.541,0.847c0.347,2.04-1.547,1.838-0.847,4.233C190.271,178.294,190.548,176.886,190.42,175.891z"/>
	</g>
</g>
<path fill="none" stroke="#FFFCF2" stroke-width="4" stroke-miterlimit="10" d="M167.839,3.894
	c91.036,0,164.834,73.799,164.834,164.836s-73.798,164.837-164.834,164.837c-91.038,0-164.837-73.801-164.837-164.837
	S76.801,3.894,167.839,3.894z"/>
<g id="yCM9TP_1_" display="none">
	<g display="inline">
		<path fill="#FFFCF2" d="M181.594,120.152c1.237-0.037,1.755,0.64,1.962,1.632C182.688,121.454,181.694,121.247,181.594,120.152z"
			/>
		<path fill="#FFFCF2" d="M251.222,161.014c0.214-0.921,0.381,0.751,0.328,0.98C251.397,162.65,250.936,162.256,251.222,161.014z"/>
		<path fill="#FFFCF2" d="M225.724,187.82c0.557-0.123,0.616,0.256,0.655,0.65c-0.282-0.055-0.308,0.13-0.327,0.331
			C225.667,188.744,225.778,188.202,225.724,187.82z"/>
		<path fill="#FFFCF2" d="M245.34,191.742c1.016,0.069,0.552,1.628,0.653,2.616C245.146,194.11,244.655,192.523,245.34,191.742z"/>
		<path fill="#FFFCF2" d="M204.804,202.855c0.759,0.093,0.751,0.872,0.327,1.308C204.684,204.062,204.859,203.342,204.804,202.855z"
			/>
		<path fill="#FFFCF2" d="M204.149,221.815c0.014,0.993-1.147,0.818-1.962,0.982C202.465,222.094,202.994,221.641,204.149,221.815z"
			/>
		<path fill="#FFFCF2" d="M229.975,295.042c-1.364-9.927-1.065-19.868-2.289-28.767c-0.172-1.234-0.837-2.396-0.982-3.598
			c-0.23-1.964,0.44-4.066-0.324-5.885c-1.592-3.778-3.606-7.422-5.56-11.769c-2.062-4.601-3.65-10.102-7.193-12.749
			c-1.005,4.165-2.523,8.485-7.188,8.173c-1.577-0.108-2.313-1.017-3.925-1.636c-3.759,3.649-5.476,9.346-10.459,11.77
			c-0.132-6.377,5.486-9.746,8.499-14.058c-2.415-3.468-2.78-10.808,0.65-13.402c-12.023-0.377-26.182-2.577-38.246,0.325
			c4.903-3.161,10.193-5.392,17.981-6.212c1.819-0.191,4.124-0.751,5.557-0.656c1.729,0.116,4.088,1.295,6.213,1.964
			c3.568,1.124,6.823,2.436,11.115,2.289c1.687-0.71,0.681-4.112,1.961-5.231c-3.679-2.633-7.135-5.693-10.789-8.827
			c-2.38-2.037-4.548-4.88-7.19-6.212c-2.878-1.446-6.259-1.698-9.152-3.268c-2.637-1.433-4.739-3.207-6.867-5.559
			c-1.342,0.256-1.673-0.502-2.94-0.326c0.733-0.263,2.459-0.263,3.596-1.638c8.463,0.146,11.509,5.713,18.634,7.191
			c0.924,0.604,1.362,1.691,2.941,1.639c0.68,2.478,2.77,3.549,5.887,3.597c1.131-1.928-0.555-2.635-2.291-4.905
			c-2.536-3.331-5.021-8.187-6.861-11.77c-3.151-6.129-5.229-11.615-6.212-18.633c7.596-0.295,10.873,6.267,14.06,11.441
			c1.019-0.723,1.061-2.428,1.631-3.598c-2.184-2.042-3.231-5.649,0.655-6.536c-0.688-2.473-1.432-4.887-2.613-6.863
			c-5.43,2.582-10.379-2.011-9.48-8.827c-5.372-1.662-11.33-4.546-16.018-7.844c-3.967-2.791-11.875-7.067-9.48-14.056
			c3.65,4.414,4.733,11.394,11.113,13.076c-0.241,0.583-0.594,0.045-0.979,0c-0.027,0.854,2.803,3.208,4.25,2.615
			c-0.353-0.277-3.61-1.055-2.944-2.29c5.406,1.13,10.101,2.977,14.385,5.234c1.428-1.603,0.96-6.719,0.328-8.828
			c-3.78,2.095-7.609-0.591-11.443,0c1.942-2.963,3.564-6.241,7.52-7.191c-0.539-2.184-3.661-1.787-4.579-3.597
			c-3.017-0.748-5.258-3.838-7.516-5.884c-5.304-4.8-10.587-10.341-19.288-11.115c0.894-0.902-0.478-0.308-0.653-0.98
			c-2.499-0.337-4.87-0.796-7.192-1.307c4.799-0.982,9.423,1.036,13.076,2.288c2.078-1.409,4.365-2.61,7.192-3.27
			c-0.943-1.508-2.896-1.639-4.578-2.286c-2.867-1.104-6.455-2.647-9.153-4.579c-1.088-0.777-2.637-1.898-2.614-3.269
			c7.388-2.016,12.543,2.889,17.654,5.228c-2.139-4.966-6.507-14.521-1.636-19.613c4.786,1.859,6.283,7.011,9.479,10.462
			c-0.742-3.266-2.245-9.747,0.982-11.441c1.497,0.958,1.074,2.585,1.306,5.229c0.357,4.09,1.83,8.469,0.98,12.749
			c2.304,5.768,5.835,11.659,5.556,18.959c1.463-0.612,1.2-2.943,3.925-2.288c1.135,3.008,1.124,7.161,1.31,11.113
			c1.919-0.173,2.961-3.057,3.596-5.229c0.434-1.481,0.887-3.449,2.287-4.904c1.533-6.717,4.426-12.5,8.829-16.672
			c4.16-3.943,9.229-8.164,16.017-8.499c0.123,2.039-1.7,2.722-2.94,3.594c-3.847,2.699-8.712,4.813-12.098,8.5
			c-4.649,5.064-6.777,11.17-9.808,17.979c-2.461,1.568-3.459,4.602-5.228,6.865c1.746,1.956,2.956,4.453,4.575,6.536
			c3.026-0.622,6,1.027,7.519,2.945c2.409-4.711,3.783-9.727,6.211-14.057c2.549-4.544,5.262-7.634,8.501-10.789
			c0.242-0.234,0.138-0.349,0.327-0.653c0.333-0.54,0.754-0.452,0.651-0.326c0.315-0.385,0.023-0.591,0.33-0.981
			c0.605-0.778,1.672-1.298,2.615-2.287c-0.628,2.157-2.593,3.71-4.252,5.556c-4.189,4.667-9.14,12.467-11.113,19.287
			c-0.252,0.865-0.018,2.108-0.329,3.269c-0.317,1.185-1.229,2.223-1.308,3.27c-0.135,1.865,0.827,3.554,0.655,5.232
			c-0.311,3.009-2.04,3.876-3.927,6.211c0.241,2.309-0.627,3.513-1.304,4.904c0.468,0.84,0.544,2.069,1.304,2.616
			c0.754-0.666,0.122-2.717,0.328-3.925c3.929-1.411,9.737-0.937,14.713-1.305c0.729-0.335-0.427-1.502,0-2.617
			c2.26,1.009,3.746,2.792,5.56,4.25c1.156-2.001,0.775-5.544,1.96-7.518c3.646,3.09,1.964,8.379,2.943,13.404
			c0.698,3.598,4.552,6.412,4.577,9.806c2.286-2.07,2.713-6.006,5.56-7.52c1.16-0.508,0.195,1.111,0.979,0.982
			c1.109-1.449,0.066-3.11,0-4.904c-0.269-7.089,2.478-14.204,7.191-17.001c3.174,2.06,5.162,5.3,8.498,7.192
			c1.814-3.414,3.058-7.401,6.538-9.151c4.727,3.302,2.721,13.046,0.326,17.326c0.425,1.973,2.14,2.655,2.615,4.576
			c2.755-1.71,4.091-4.844,7.192-6.211c-0.258-3.43-2.591-6.062-3.597-9.151c-0.642-1.973-0.755-4.009-1.309-6.211
			c-1.56-6.211-4.851-12.115-1.308-17.979c2.29-0.003,2.438,2.138,4.249,2.615c-1.458-3.883-3.678-7.001-6.211-9.807
			c1.898-0.366,2.556,3.324,4.25,4.25c-1.581-3.241-2.165-5.877-4.577-7.846c-0.89,0.391,1.642,1.803,0.982,1.961
			c-2.702-1.132-1.196-1.541-2.94-3.598c8.963,4.071,14.692,13.655,17.322,25.173c0.35,1.53,0.015,3.665,0.325,5.885
			c0.161,1.12,0.773,2.13,0.983,3.269c0.602,3.247-0.019,6.879,1.634,9.807c1.87-1.691,5.719-8.057,3.923-12.097
			c-0.203-0.461-0.799-0.494-0.979-0.979c-0.18-0.47,0.205-1.179,0-1.635c-1.054-2.342-3.13-4.39-4.25-7.192
			c-1.074-2.686-1.521-5.858-2.617-8.827c-1.417-3.836-3.096-8.667-5.559-11.768c-0.77-0.968-2.344-1.275-2.289-2.616
			c2.262,0.573,3.451,2.219,5.231,3.269c-0.515-2.627-2.951-7.425-1.306-11.442c6.234,1.121,9.678,8.086,12.422,14.057
			c1.27,2.773,2.24,4.624,2.94,8.174c-0.078,1.012-0.908,1.27-1.305,1.96c1.89,1.532,0.835,7.546,3.595,9.152
			c1.233-1.163,2.435-2.359,2.614-4.577c3.886-5.157,9.032-9.056,17.326-9.806c-3.551,5.706-9.57,8.95-16.344,11.441
			c-3.499,3.148-5.362,7.932-6.863,13.077c1.044,0.547,2.729-0.634,3.923-0.983c0.827-0.796-0.691-0.694-0.326-1.959
			c7.796-5.813,20.475-11.405,33.669-12.096c3.188-0.166,6.08-0.099,8.173,1.309c-1.471,1.801-4.612,1.928-6.54,3.271
			c-0.432,0.982-0.09,1.139-0.324,2.614c-0.773-0.007-0.963,0.563-1.965,0.328c-7.91,5.115-17.627,9.368-26.152,14.057
			c-2.292,1.26-4.78,2.684-8.823,2.289c1.418,5.091-3.263,9.709-2.615,14.385c0.208,1.506,1.05,2.244,1.958,3.594
			c10.593-5.32,17.645,17.143,6.866,17.981c-1.701,0.132-2.452-0.607-4.25-0.98c-0.598,3.783-0.502,7.716-2.616,10.785
			c-1.656,2.405-5.864,5.296-8.823,4.577c-2.832-0.684-5.869-8.166-4.579-13.075c-2.546-0.395-5.254-0.628-6.536-2.287
			c-2.399,5.117-4.344,10.694-6.54,16.018c5.25,6.303,9.452,13.655,11.445,23.21c-0.478,0.508-1.675,0.287-2.618,0.326
			c1.697,4.604,8.393,10.23,6.215,17.656c-6.397,1.88-10.099-3.781-13.405-7.848c-3.11-3.823-7.534-9.936-9.152-14.708
			c-1.696,1.811-2.669,4.194-3.923,6.534c-1.016,1.903-2.078,4.782-3.598,6.865c-2.005,2.756-5.069,5.005-7.192,7.521
			c-4.631,5.481-8.639,12.192-6.212,22.555c0.91-0.736,1.048-3.952,2.615-2.945c1.789,1.181-0.346,2.862-0.65,3.924
			c-1.937,6.722,0.343,16.397,0.979,24.191 M230.956,385.268c0.079-0.355,0.651-0.219,0.652-0.655 M283.913,177.358
			c2.571-0.792,2.46-3.28,1.31-5.559C283.873,172.771,282.554,175.653,283.913,177.358z M184.536,130.939
			c-0.148-2.098-0.784-5.23,0-7.192c-1.067-1.438-3.184-1.829-4.25-3.268c-4.159,2.603-9.159-2.639-12.423-2.941
			C173.632,121.792,178.979,126.472,184.536,130.939z M284.896,147.282c0.7-2.349,2.361-4.576,2.613-7.19
			c0.494-5.116-2.608-9.913-3.924-13.728c-1.958-0.228-2.928-3.169-4.576-2.617C283.143,129.42,282.332,140.036,284.896,147.282z
			 M186.823,129.301c-0.159-0.385-0.351-0.74-0.654-0.98C186.12,128.761,186.683,130.125,186.823,129.301z M185.846,131.267
			C188.005,131.832,183.199,130.43,185.846,131.267L185.846,131.267z M179.959,147.609c-1.093,0-1.116-1.062-2.287-0.979
			C177.762,147.433,179.623,148.134,179.959,147.609z M282.278,157.744c5.159-2.576,9.433-6.041,12.422-10.789
			C287.242,147.014,282.691,151.723,282.278,157.744z M278.031,161.667c1.131-1.614,0.88-5.918-0.655-6.863
			C277.775,156.906,277.418,159.772,278.031,161.667z M202.842,168.203c4.148-0.742,7.309-1.819,8.825,1.963
			c2.748,0.343,3.996,3.8,6.536,3.27c-0.176-2.327-2.247-2.765-2.288-5.232c0.577-0.949,1.505-1.543,3.271-1.308
			c0.827-2.581-0.6-4.828-2.288-5.883c-5.036,1.625-10.216-0.426-15.042-0.981C201.603,163.344,202.052,165.942,202.842,168.203z
			 M253.84,175.725c0.85,0.129,0.986,0.975,1.96,0.979c1.257-2.228,2.38-4.591,3.926-6.536c-0.618-1.344-1.023-2.898-2.617-3.269
			C256.071,169.891,254.28,172.135,253.84,175.725z M271.818,167.879c-0.42,2.074-0.768,4.205-1.633,6.212
			c-0.666,1.536-3.135,3.606-0.984,4.904c2.617-3.011,3.979-5.995,4.256-10.79c-0.943-0.038-0.572-1.393-1.639-1.307
			C271.818,167.225,271.818,167.551,271.818,167.879z M279.337,173.764c1.189,0.337,2.023,1.027,3.271,1.307
			c0.925-2.02,2.854-4.77,1.96-7.518C283.114,169.912,280.711,171.323,279.337,173.764z M239.454,173.436
			c-2.537,1.166-3.642,3.771-5.231,5.887c2.711,3.172,4.559,7.207,7.846,9.807c0.611-0.262,1.196-0.545,1.961-0.658
			C242.511,183.455,240.466,178.965,239.454,173.436z M227.032,183.242c1.802-0.05,1.536-2.166,2.29-3.27
			c-0.63-0.461-1.315-0.863-2.29-0.981C226.659,180.723,226.886,181.416,227.032,183.242z M249.914,186.838
			c2.328-1.268,3.165-4.026,3.926-6.863c-0.957,0.086-1.007-0.74-1.962-0.652C250.984,181.407,249.46,184.479,249.914,186.838z
			 M265.278,182.916c1.282,1.813-0.414,3.727,1.311,5.231c-0.783-3.872,2.057-5.737,1.306-8.499
			c-0.071-0.258-0.273-0.38-0.651-0.326C266.707,180.637,265.817,181.6,265.278,182.916z M210.033,187.166
			c0.107,1.476,0.764,3.9,1.638,4.577c0.122-4.015,1.198-7.082,1.96-10.46c-0.982-0.324-1.459-1.158-2.943-0.98
			C210.663,182.412,209.876,184.908,210.033,187.166z M231.936,181.279c-0.969,1.321-2.059,2.519-2.613,4.253
			c2.735,1.949,4.577,4.792,7.843,6.211c1.02-0.941,2.631-1.292,3.271-2.614C237.629,186.49,235.075,183.592,231.936,181.279z
			 M263.645,184.549c-3.753,4.855-7.146,10.072-13.076,12.751c-0.505,1.345-1.764,1.938-1.96,3.597
			c4.728-0.273,6.604,3.995,10.789,5.23c1.652-7.076,7.028-12.123,5.229-21.576C264.299,184.549,263.975,184.549,263.645,184.549z
			 M220.822,188.797c1.023,0.193,3.038,1.088,3.923,0.328c-0.386-1.902-0.585-3.992-2.94-3.923
			C221.95,186.877,221.021,187.478,220.822,188.797z M227.032,190.106c1.806,1.247,2.804,3.296,4.903,4.252
			c1.363-0.492,2.778-0.929,3.597-1.965c-2.249-1.562-4.595-3.028-7.846-3.597C227.514,189.281,227.201,189.623,227.032,190.106z
			 M248.608,190.106c-0.437,0.546-1.454,0.509-1.966,0.982c-0.354,3.729,0.987,5.77,0.983,9.148
			c1.379-0.144,1.367-1.682,1.638-2.939c-0.244-0.958-1.767-0.633-1.638-1.962C248.121,194.122,249.802,190.859,248.608,190.106z
			 M206.438,202.202c0.513,4.715,1.177,9.285,3.595,12.094c-0.9-1.586,1.89-1.058,1.312-3.269
			c-6.397-4.148,1.977-13.396-1.966-18.634C208.784,196.048,208.38,199.895,206.438,202.202z M233.571,195.663
			c-0.105,1.42,1.586,2.518,2.615,3.925c1.8,2.458,3.032,3.629,5.558,5.232c1.354,0.856,2.793,2.558,4.576,1.307
			c-0.444-5.653-7.201-5.002-9.477-8.823c3.581-1.284,6.208,0.89,8.5,1.96c0.226-1.646-0.557-2.279-0.327-3.924
			C241.096,192.479,238.049,195.062,233.571,195.663z M219.514,208.088c1.021-2.252,3.182-3.359,2.617-7.191
			c-0.769-0.325-1.608-0.574-2.617-0.655C219.64,202.768,219.336,206.594,219.514,208.088z M198.595,207.759
			c4.308,0.765,4.651,8.409,9.478,6.537c-0.956-2.417-2.279-4.477-2.941-7.191c-3.357-2.419-6.121-5.429-11.77-5.558
			C193.57,203.884,197.128,205.6,198.595,207.759z M241.742,207.433c-2.08-0.438-3.036-2.52-4.9-3.599
			c-3.159-1.812-7.392-1.374-11.771-2.287c-0.328,0-0.389,0.267-0.656,0.327c0,0.217,0,0.438,0,0.654
			c0.204,1.803,0.913,4.952,0.656,7.845c-0.385,4.347-3.254,8.308-3.271,12.099c-0.007,1.911,1.248,4.769,1.962,7.188
			c0.687,2.328,1.677,4.669,2.289,6.865c0.676,2.424,0.883,5.183,1.634,7.518c0.851,2.641,1.877,4.79,2.289,7.191
			c0.21,1.217-0.531,2.447,0.655,3.596c0.362-1.383,1.615-1.869,1.633-3.596c2.478-2.973,5.427-5.473,7.191-9.153
			c1.28,0.078,1.916-1.461,2.615-2.287c3.29-3.893,4.863-9.131,4.907-16.021c0.03-5.751-0.357-11.768-0.983-16.345
			C244.51,206.94,243.312,207.221,241.742,207.433z M248.281,213.646c1.712,0.464,2.875,1.484,3.926,2.615
			c-1.243-4.097-3.637-7.043-3.599-12.427c-0.069-0.365-0.362-0.507-0.654-0.654C247.683,205.109,248.037,210.264,248.281,213.646z
			 M212.976,222.798c1.394-0.679,1.785-2.355,1.962-4.251c-1.854-0.979-2.129-3.539-3.598-4.901
			C210.218,217.531,212.166,219.896,212.976,222.798z M248.608,230.315c0.352-2.523,2.86-4.147,2.941-6.864
			c0.039-1.326-1.039-3.043-1.308-4.578c-0.303-1.738,0.392-3.523-0.979-4.577c-0.328,0-0.655,0-0.982,0
			C248.686,219.537,248.444,225.731,248.608,230.315z M209.707,219.201c-0.315-0.259,0.383,0.406,0-0.654
			c-0.487-1.354-2.082-2.199-3.596-2.286c-0.716,1.134-0.865,2.838-0.98,4.574c0.204,0.452,1.258,0.049,1.308,0.655
			c-0.745-0.093-1.229,0.078-1.308,0.652c5.271,0.723,7.553,4.436,8.172,9.809c0.438,0,0.872,0,1.308,0
			c-0.523-1.816-1.649-5.425-2.616-6.539c-0.571-0.658-1.338-1.869-1.307-2.614c0.012-0.374,0.704-0.367,0.652-0.655
			c-0.011-0.075-1.253-0.179-0.979-0.652c0.326-0.002,0.387,0.265,0.656,0.325C210.498,221.005,210.604,219.928,209.707,219.201z
			 M216.573,218.547c-4.918,4.714,0.085,10.502,0.981,14.058c1.735-4.908-0.135-9.556-0.33-14.71
			c-0.416-0.021-0.45-0.421-0.979-0.327C216.294,217.949,216.189,218.492,216.573,218.547z M218.535,235.22
			c0.337,1.842,1.777,2.854,2.615,4.577c1.548,3.188,2.175,7.083,4.247,9.48c-0.54-8.721-3.691-14.834-5.231-22.557
			c-0.416-0.018-0.451-0.418-0.979-0.326C218.674,228.527,218.162,233.203,218.535,235.22z"/>
	</g>
</g>
<circle display="none" fill="none" stroke="#FFFCF2" stroke-width="4" stroke-miterlimit="10" cx="157.697" cy="168.983" r="147.426"/>
</svg>
